<svg width="1902" height="705" xmlns="http://www.w3.org/2000/svg" xmlns:xlink="http://www.w3.org/1999/xlink" overflow="hidden"><g transform="translate(-654 -1663)"><text font-family="Imperial Sans Text,Imperial Sans Text_MSFontService,sans-serif" font-weight="400" font-size="24" transform="translate(1971.87 1874)">No</text><rect x="1000" y="2124" width="156" height="82" fill="#4E7F74"/><text fill="#FFFFFF" font-family="Imperial Sans Text,Imperial Sans Text_MSFontService,sans-serif" font-weight="400" font-size="27" transform="translate(1016.02 2174)">Frequency</text><rect x="1303" y="2124" width="156" height="82" fill="#4E7F74"/><text fill="#FFFFFF" font-family="Imperial Sans Text,Imperial Sans Text_MSFontService,sans-serif" font-weight="400" font-size="27" transform="translate(1327.42 2174)">Category</text><text font-family="Imperial Sans Text,Imperial Sans Text_MSFontService,sans-serif" font-weight="700" font-size="32" transform="translate(784.267 1703)">Behaviour Modelling: Fuzzy Inference System</text><text font-family="Imperial Sans Text,Imperial Sans Text_MSFontService,sans-serif" font-weight="700" font-size="32" transform="translate(1773.07 1704)">Demand Generation: Monte Carlo (MC) Sampling</text><rect x="923" y="1862" width="310" height="151" fill="#4E7F74"/><text fill="#FFFFFF" font-family="Imperial Sans Text,Imperial Sans Text_MSFontService,sans-serif" font-weight="400" font-size="27" transform="translate(945.047 1889)">Demographic Features</text><text fill="#FFFFFF" font-family="Arial,Arial_MSFontService,sans-serif" font-weight="400" font-size="24" transform="translate(948.467 1919)">•</text><text fill="#FFFFFF" font-family="Imperial Sans Text,Imperial Sans Text_MSFontService,sans-serif" font-weight="400" font-size="24" transform="translate(968.133 1919)">Age</text><text fill="#FFFFFF" font-family="Arial,Arial_MSFontService,sans-serif" font-weight="400" font-size="24" transform="translate(948.467 1948)">•</text><text fill="#FFFFFF" font-family="Imperial Sans Text,Imperial Sans Text_MSFontService,sans-serif" font-weight="400" font-size="24" transform="translate(968.133 1948)">Sex</text><text fill="#FFFFFF" font-family="Arial,Arial_MSFontService,sans-serif" font-weight="400" font-size="24" transform="translate(948.467 1976)">•</text><text fill="#FFFFFF" font-family="Imperial Sans Text,Imperial Sans Text_MSFontService,sans-serif" font-weight="400" font-size="24" transform="translate(968.133 1976)">Marital Status</text><text fill="#FFFFFF" font-family="Arial,Arial_MSFontService,sans-serif" font-weight="400" font-size="24" transform="translate(948.467 2005)">•</text><text fill="#FFFFFF" font-family="Imperial Sans Text,Imperial Sans Text_MSFontService,sans-serif" font-weight="400" font-size="24" transform="translate(968.133 2005)">...</text><path d="M2001 1755.06C2001 1741.22 2012.22 1730 2026.06 1730L2249.94 1730C2263.78 1730 2275 1741.22 2275 1755.06L2275 1787.94C2275 1801.78 2263.78 1813 2249.94 1813L2026.06 1813C2012.22 1813 2001 1801.78 2001 1787.94Z" fill="#4E77A4" fill-rule="evenodd"/><text fill="#FFFFFF" font-family="Imperial Sans Text,Imperial Sans Text_MSFontService,sans-serif" font-weight="400" font-size="27" transform="translate(2082.16 1764)">Synthetic</text><text fill="#FFFFFF" font-family="Imperial Sans Text,Imperial Sans Text_MSFontService,sans-serif" font-weight="400" font-size="27" transform="translate(2023.08 1796)">Population Instance</text><path d="M934 1753.57C934 1738.9 945.897 1727 960.573 1727L1181.43 1727C1196.1 1727 1208 1738.9 1208 1753.57L1208 1788.43C1208 1803.1 1196.1 1815 1181.43 1815L960.573 1815C945.897 1815 934 1803.1 934 1788.43Z" fill="#4E77A4" fill-rule="evenodd"/><text fill="#FFFFFF" font-family="Imperial Sans Text,Imperial Sans Text_MSFontService,sans-serif" font-weight="400" font-size="27" transform="translate(981.567 1764)">Multi</text><text fill="#FFFFFF" font-family="Imperial Sans Text,Imperial Sans Text_MSFontService,sans-serif" font-weight="400" font-size="27" transform="translate(1039.07 1764)">-</text><text fill="#FFFFFF" font-family="Imperial Sans Text,Imperial Sans Text_MSFontService,sans-serif" font-weight="400" font-size="27" transform="translate(1047.4 1764)">Source E</text><text fill="#FFFFFF" font-family="Imperial Sans Text,Imperial Sans Text_MSFontService,sans-serif" font-weight="400" font-size="27" transform="translate(1151.9 1764)">-</text><text fill="#FFFFFF" font-family="Imperial Sans Text,Imperial Sans Text_MSFontService,sans-serif" font-weight="400" font-size="27" transform="translate(959.4 1796)">commerce Reports</text><rect x="1778" y="1837" width="172" height="82" fill="#4E7F74"/><text fill="#FFFFFF" font-family="Imperial Sans Text,Imperial Sans Text_MSFontService,sans-serif" font-weight="400" font-size="27" transform="translate(1801.03 1871)">Non</text><text fill="#FFFFFF" font-family="Imperial Sans Text,Imperial Sans Text_MSFontService,sans-serif" font-weight="400" font-size="27" transform="translate(1848.53 1871)">-</text><text fill="#FFFFFF" font-family="Imperial Sans Text,Imperial Sans Text_MSFontService,sans-serif" font-weight="400" font-size="27" transform="translate(1856.87 1871)">online</text><text fill="#FFFFFF" font-family="Imperial Sans Text,Imperial Sans Text_MSFontService,sans-serif" font-weight="400" font-size="27" transform="translate(1806.61 1903)">Customer</text><rect x="2032" y="1951" width="214" height="71" fill="#4E7F74"/><text fill="#FFFFFF" font-family="Imperial Sans Text,Imperial Sans Text_MSFontService,sans-serif" font-weight="400" font-size="27" transform="translate(2077.45 1996)">Frequency</text><rect x="2032" y="2055" width="214" height="71" fill="#4E7F74"/><text fill="#FFFFFF" font-family="Imperial Sans Text,Imperial Sans Text_MSFontService,sans-serif" font-weight="400" font-size="27" transform="translate(2085.92 2100)">Category</text><path d="M0.00439017-1.83333 16.7083-1.79333 16.6995 1.87333-0.00439017 1.83333ZM14.991-5.49869 33.2 0.4 14.751 5.49869Z" fill="#375E69" transform="matrix(6.12323e-17 1 1 -6.12323e-17 2139 1918)"/><path d="M0.0014637-1.83333 16.7019-1.82 16.699 1.84667-0.0014637 1.83333ZM14.9072-5.49985 33.2 0.133333 14.8272 5.49985Z" fill="#375E69" transform="matrix(6.12323e-17 1 1 -6.12323e-17 2139 2022)"/><text font-family="Imperial Sans Text,Imperial Sans Text_MSFontService,sans-serif" font-weight="700" font-size="24" transform="translate(2285.47 2290)">Attribute</text><text font-family="Arial,Arial_MSFontService,sans-serif" font-weight="400" font-size="24" transform="translate(2285.47 2319)">•</text><text font-family="Imperial Sans Text,Imperial Sans Text_MSFontService,sans-serif" font-weight="400" font-size="24" transform="translate(2315.47 2319)">Category</text><text font-family="Arial,Arial_MSFontService,sans-serif" font-weight="400" font-size="24" transform="translate(2285.47 2347)">•</text><text font-family="Imperial Sans Text,Imperial Sans Text_MSFontService,sans-serif" font-weight="400" font-size="24" transform="translate(2315.47 2347)">Value</text><path d="M2009 1878 2138.5 1838 2268 1878 2138.5 1918Z" fill="#4E7F74" fill-rule="evenodd"/><text fill="#FFFFFF" font-family="Imperial Sans Text,Imperial Sans Text_MSFontService,sans-serif" font-weight="400" font-size="27" transform="translate(2079.85 1887)">Available?</text><path d="M2009.4 1879.9 1977.9 1879.9 1977.9 1878 1979.73 1879.83 1966.5 1879.83 1966.5 1876.17 1981.57 1876.17 1981.57 1878.07 1979.73 1876.23 2009.4 1876.23ZM1968.33 1883.5 1950 1878 1968.33 1872.5Z" fill="#375E69"/><text font-family="Imperial Sans Text,Imperial Sans Text_MSFontService,sans-serif" font-weight="400" font-size="24" transform="translate(2088.2 1940)">Yes</text><rect x="699" y="2124" width="156" height="82" fill="#4E7F74"/><text fill="#FFFFFF" font-family="Imperial Sans Text,Imperial Sans Text_MSFontService,sans-serif" font-weight="400" font-size="27" transform="translate(714.617 2174)">Availability</text><path d="M1079.57 2013 1079.57 2070.53 777 2070.53 778.833 2068.7 778.833 2107.97 775.167 2107.97 775.167 2066.87 1077.73 2066.87 1075.9 2068.7 1075.9 2013ZM782.5 2106.13 777 2124.47 771.5 2106.13Z" fill="#375E69"/><path d="M0.000643482-1.83333 94.97-1.8 94.9688 1.86667-0.000643482 1.83333ZM93.2364-5.49909 111.467 0.333333 93.0364 5.49909Z" fill="#375E69" transform="matrix(6.12323e-17 1 1 -6.12323e-17 1078 2013)"/><path d="M0-1.83333 57.5667-1.83333 57.5667 303.067 55.7333 301.233 94.9667 301.233 94.9667 304.9 53.9 304.9 53.9 0 55.7333 1.83333 0 1.83333ZM93.1333 297.567 111.467 303.067 93.1333 308.567Z" fill="#375E69" transform="matrix(6.12323e-17 1 1 -6.12323e-17 1078 2013)"/><path d="M654 2293.57C654 2278.9 665.897 2267 680.573 2267L873.427 2267C888.103 2267 900 2278.9 900 2293.57L900 2328.43C900 2343.1 888.103 2355 873.427 2355L680.573 2355C665.897 2355 654 2343.1 654 2328.43Z" fill="#766193" fill-rule="evenodd"/><text fill="#FFFFFF" font-family="Imperial Sans Text,Imperial Sans Text_MSFontService,sans-serif" font-weight="400" font-size="27" transform="translate(678.283 2304)">FIS Rule Base for</text><text fill="#FFFFFF" font-family="Imperial Sans Text,Imperial Sans Text_MSFontService,sans-serif" font-weight="400" font-size="27" transform="translate(714.617 2336)">Availability</text><path d="M955 2293.57C955 2278.9 966.897 2267 981.573 2267L1174.43 2267C1189.1 2267 1201 2278.9 1201 2293.57L1201 2328.43C1201 2343.1 1189.1 2355 1174.43 2355L981.573 2355C966.897 2355 955 2343.1 955 2328.43Z" fill="#766193" fill-rule="evenodd"/><text fill="#FFFFFF" font-family="Imperial Sans Text,Imperial Sans Text_MSFontService,sans-serif" font-weight="400" font-size="27" transform="translate(979.017 2304)">FIS Rule Base for</text><text fill="#FFFFFF" font-family="Imperial Sans Text,Imperial Sans Text_MSFontService,sans-serif" font-weight="400" font-size="27" transform="translate(1016.02 2336)">Frequency</text><path d="M1258 2293.57C1258 2278.9 1269.9 2267 1284.57 2267L1477.43 2267C1492.1 2267 1504 2278.9 1504 2293.57L1504 2328.43C1504 2343.1 1492.1 2355 1477.43 2355L1284.57 2355C1269.9 2355 1258 2343.1 1258 2328.43Z" fill="#766193" fill-rule="evenodd"/><text fill="#FFFFFF" font-family="Imperial Sans Text,Imperial Sans Text_MSFontService,sans-serif" font-weight="400" font-size="27" transform="translate(1281.95 2304)">FIS Rule Base for</text><text fill="#FFFFFF" font-family="Imperial Sans Text,Imperial Sans Text_MSFontService,sans-serif" font-weight="400" font-size="27" transform="translate(1291.36 2336)">Order Category</text><path d="M1089.25 1820 1089.25 1838.5 1101 1838.5 1077.5 1857 1054 1838.5 1065.75 1838.5 1065.75 1820Z" fill="#4E7F74" fill-rule="evenodd"/><path d="M0.0164497-1.83326 8.93217-1.75326 8.89927 1.91326-0.0164497 1.83326ZM7.32413-5.49476 25.4 0.8 6.84413 5.49476Z" fill="#375E69" transform="matrix(6.12323e-17 1 1 -6.12323e-17 2138 1813)"/><path d="M2016 2288.57C2016 2273.9 2027.9 2262 2042.57 2262L2235.43 2262C2250.1 2262 2262 2273.9 2262 2288.57L2262 2323.43C2262 2338.1 2250.1 2350 2235.43 2350L2042.57 2350C2027.9 2350 2016 2338.1 2016 2323.43Z" fill="#766193" fill-rule="evenodd"/><text fill="#FFFFFF" font-family="Imperial Sans Text,Imperial Sans Text_MSFontService,sans-serif" font-weight="400" font-size="27" transform="translate(2047.35 2299)">Synthetic Order</text><text fill="#FFFFFF" font-family="Imperial Sans Text,Imperial Sans Text_MSFontService,sans-serif" font-weight="400" font-size="27" transform="translate(2089.35 2331)">Instance</text><path d="M2141.03 2126 2141.03 2195.87 2139 2195.87 2140.83 2194.03 2140.83 2245.63 2137.17 2245.63 2137.17 2192.2 2139.2 2192.2 2137.37 2194.03 2137.37 2126ZM2144.5 2243.8 2139 2262.13 2133.5 2243.8Z" fill="#375E69"/><text font-family="Imperial Sans Text,Imperial Sans Text_MSFontService,sans-serif" font-weight="700" font-size="24" transform="translate(2287.93 1866)">Bernoulli MC</text><text font-family="Imperial Sans Text,Imperial Sans Text_MSFontService,sans-serif" font-weight="400" font-size="24" transform="translate(2287.93 1895)">Binary results: yes or no</text><text font-family="Imperial Sans Text,Imperial Sans Text_MSFontService,sans-serif" font-weight="700" font-size="24" transform="translate(2287.93 1959)">Poisson MC</text><text font-family="Imperial Sans Text,Imperial Sans Text_MSFontService,sans-serif" font-weight="400" font-size="24" transform="translate(2287.93 1988)">How any times an event</text><text font-family="Imperial Sans Text,Imperial Sans Text_MSFontService,sans-serif" font-weight="400" font-size="24" transform="translate(2287.93 2016)">happens in a fixed time</text><text font-family="Imperial Sans Text,Imperial Sans Text_MSFontService,sans-serif" font-weight="700" font-size="24" transform="translate(2287.93 2072)">Discrete Random MC</text><text font-family="Imperial Sans Text,Imperial Sans Text_MSFontService,sans-serif" font-weight="400" font-size="24" transform="translate(2287.93 2101)">Restults are discrete</text><text font-family="Imperial Sans Text,Imperial Sans Text_MSFontService,sans-serif" font-weight="400" font-size="24" transform="translate(2287.93 2129)">values</text><path d="M1656 2122.02C1656 2111.52 1664.52 2103 1675.02 2103L1809.98 2103C1820.48 2103 1829 2111.52 1829 2122.02L1829 2146.98C1829 2157.48 1820.48 2166 1809.98 2166L1675.02 2166C1664.52 2166 1656 2157.48 1656 2146.98Z" fill="#4E77A4" fill-rule="evenodd"/><text fill="#FFFFFF" font-family="Imperial Sans Text,Imperial Sans Text_MSFontService,sans-serif" font-weight="400" font-size="21" transform="translate(1694.19 2142)">Input Data</text><path d="M1656 2302.02C1656 2291.52 1664.52 2283 1675.02 2283L1809.98 2283C1820.48 2283 1829 2291.52 1829 2302.02L1829 2326.98C1829 2337.48 1820.48 2346 1809.98 2346L1675.02 2346C1664.52 2346 1656 2337.48 1656 2326.98Z" fill="#766193" fill-rule="evenodd"/><text fill="#FFFFFF" font-family="Imperial Sans Text,Imperial Sans Text_MSFontService,sans-serif" font-weight="400" font-size="21" transform="translate(1705.36 2309)">Process</text><text fill="#FFFFFF" font-family="Imperial Sans Text,Imperial Sans Text_MSFontService,sans-serif" font-weight="400" font-size="21" transform="translate(1710.19 2335)">Output</text><rect x="1656" y="2196" width="173" height="63" fill="#4E7F74"/><text fill="#FFFFFF" font-family="Imperial Sans Text,Imperial Sans Text_MSFontService,sans-serif" font-weight="400" font-size="21" transform="translate(1693.66 2222)">Functional</text><text fill="#FFFFFF" font-family="Imperial Sans Text,Imperial Sans Text_MSFontService,sans-serif" font-weight="400" font-size="21" transform="translate(1705.41 2248)">Process</text><text font-family="Imperial Sans Text,Imperial Sans Text_MSFontService,sans-serif" font-weight="700" font-size="24" transform="translate(1665.46 2092)">Components</text><text font-family="Imperial Sans Text,Imperial Sans Text_MSFontService,sans-serif" font-weight="700" font-size="27" transform="translate(903.833 2047)">Fuzzification &amp; Aggregation</text><text fill="#0000CD" font-family="Imperial Sans Text,Imperial Sans Text_MSFontService,sans-serif" font-weight="700" font-size="27" transform="translate(1339.53 1953)">Example of FIS</text><text fill="#0000CD" font-family="Imperial Sans Text,Imperial Sans Text_MSFontService,sans-serif" font-weight="700" font-size="27" transform="translate(1530.03 1953)">-</text><text fill="#0000CD" font-family="Imperial Sans Text,Imperial Sans Text_MSFontService,sans-serif" font-weight="700" font-size="27" transform="translate(1544.2 1953)">Availability Module</text><text fill="#0000CD" font-family="Arial,Arial_MSFontService,sans-serif" font-weight="400" font-size="27" transform="translate(1339.87 1985)">•</text><text fill="#0000CD" font-family="Imperial Sans Text,Imperial Sans Text_MSFontService,sans-serif" font-weight="400" font-size="27" transform="translate(1387.53 1985)">Rule:</text><text fill="#0000CD" font-family="Imperial Sans Text,Imperial Sans Text_MSFontService,sans-serif" font-style="oblique" font-weight="400" font-size="27" transform="translate(1451.2 1985)">IF age[young_adult] THEN response[high]</text><text fill="#0000CD" font-family="Arial,Arial_MSFontService,sans-serif" font-weight="400" font-size="27" transform="translate(1339.87 2017)">•</text><text fill="#0000CD" font-family="Imperial Sans Text,Imperial Sans Text_MSFontService,sans-serif" font-weight="400" font-size="27" transform="translate(1387.53 2017)">Interpret: Young adult customers are very likely</text><text fill="#0000CD" font-family="Imperial Sans Text,Imperial Sans Text_MSFontService,sans-serif" font-weight="400" font-size="27" transform="translate(1387.53 2049)">to shop online.</text><rect x="2032" y="2159" width="214" height="71" fill="#4E7F74"/><text fill="#FFFFFF" font-family="Imperial Sans Text,Imperial Sans Text_MSFontService,sans-serif" font-weight="400" font-size="27" transform="translate(2063.2 2204)">Order Details</text><text font-family="Arial,Arial_MSFontService,sans-serif" font-weight="400" font-size="24" transform="translate(2426.73 2318)">•</text><text font-family="Imperial Sans Text,Imperial Sans Text_MSFontService,sans-serif" font-weight="400" font-size="24" transform="translate(2456.53 2318)">Weight</text><text font-family="Arial,Arial_MSFontService,sans-serif" font-weight="400" font-size="21" transform="translate(2426.73 2345)">•</text><text font-family="Imperial Sans Text,Imperial Sans Text_MSFontService,sans-serif" font-weight="400" font-size="21" transform="translate(2456.53 2345)">Location</text><text font-family="Imperial Sans Text,Imperial Sans Text_MSFontService,sans-serif" font-weight="700" font-size="24" transform="translate(2287.93 2178)">Normal Distribution</text><text font-family="Imperial Sans Text,Imperial Sans Text_MSFontService,sans-serif" font-weight="400" font-size="24" transform="translate(2287.93 2207)">Values follow normal</text><text font-family="Imperial Sans Text,Imperial Sans Text_MSFontService,sans-serif" font-weight="400" font-size="24" transform="translate(2287.93 2235)">Distribution</text><path d="M789.25 2222 789.25 2240.5 801 2240.5 777.5 2259 754 2240.5 765.75 2240.5 765.75 2222Z" fill="#4E7F74" fill-rule="evenodd"/><path d="M1089.25 2222 1089.25 2240.5 1101 2240.5 1077.5 2259 1054 2240.5 1065.75 2240.5 1065.75 2222Z" fill="#4E7F74" fill-rule="evenodd"/><path d="M1392.25 2222 1392.25 2240.5 1404 2240.5 1380.5 2259 1357 2240.5 1368.75 2240.5 1368.75 2222Z" fill="#4E7F74" fill-rule="evenodd"/></g></svg>