<svg width="2008" height="418" xmlns="http://www.w3.org/2000/svg" xmlns:xlink="http://www.w3.org/1999/xlink" overflow="hidden"><g transform="translate(-643 -3169)"><path d="M643 3410.75C643 3389.9 659.9 3373 680.746 3373L895.254 3373C916.1 3373 933 3389.9 933 3410.75L933 3460.25C933 3481.1 916.1 3498 895.254 3498L680.746 3498C659.9 3498 643 3481.1 643 3460.25Z" fill="#4E77A4" fill-rule="evenodd"/><text fill="#FFFFFF" font-family="Imperial Sans Text,Imperial Sans Text_MSFontService,sans-serif" font-weight="400" font-size="32" transform="translate(692.883 3427)">Micro Sample</text><text fill="#FFFFFF" font-family="Imperial Sans Text,Imperial Sans Text_MSFontService,sans-serif" font-weight="400" font-size="32" transform="translate(755.55 3466)">Data</text><rect x="979" y="3356" width="284" height="159" fill="#4E7F74"/><text fill="#FFFFFF" font-family="Imperial Sans Text,Imperial Sans Text_MSFontService,sans-serif" font-weight="400" font-size="32" transform="translate(1003.88 3408)">Initialize Weights</text><text fill="#FFFFFF" font-family="Imperial Sans Text,Imperial Sans Text_MSFontService,sans-serif" font-weight="400" font-size="32" transform="translate(1058.14 3447)">based on</text><text fill="#FFFFFF" font-family="Imperial Sans Text,Imperial Sans Text_MSFontService,sans-serif" font-weight="400" font-size="32" transform="translate(1051.14 3485)">Microdata</text><rect x="1310" y="3356" width="270" height="159" fill="#4E7F74"/><text fill="#FFFFFF" font-family="Imperial Sans Text,Imperial Sans Text_MSFontService,sans-serif" font-weight="400" font-size="32" transform="translate(1339.8 3427)">Adjust Weights</text><text fill="#FFFFFF" font-family="Imperial Sans Text,Imperial Sans Text_MSFontService,sans-serif" font-weight="400" font-size="32" transform="translate(1330.3 3466)">for Each Feature</text><rect x="1627" y="3356" width="320" height="159" fill="#4E7F74"/><text fill="#FFFFFF" font-family="Imperial Sans Text,Imperial Sans Text_MSFontService,sans-serif" font-weight="400" font-size="32" transform="translate(1642.47 3408)">Check Convergence,</text><text fill="#FFFFFF" font-family="Imperial Sans Text,Imperial Sans Text_MSFontService,sans-serif" font-weight="400" font-size="32" transform="translate(1686.3 3447)">Marginals with</text><text fill="#FFFFFF" font-family="Imperial Sans Text,Imperial Sans Text_MSFontService,sans-serif" font-weight="400" font-size="32" transform="translate(1706.55 3485)">Constraints</text><path d="M1983 3435 2146 3355 2309 3435 2146 3515Z" fill="#4E7F74" fill-rule="evenodd"/><text fill="#FFFFFF" font-family="Imperial Sans Text,Imperial Sans Text_MSFontService,sans-serif" font-weight="400" font-size="32" transform="translate(2091.36 3427)">If meet</text><text fill="#FFFFFF" font-family="Imperial Sans Text,Imperial Sans Text_MSFontService,sans-serif" font-weight="400" font-size="32" transform="translate(2068.45 3466)">Threshold?</text><path d="M2360 3407.86C2360 3385.85 2377.85 3368 2399.86 3368L2610.14 3368C2632.15 3368 2650 3385.85 2650 3407.86L2650 3460.14C2650 3482.15 2632.15 3500 2610.14 3500L2399.86 3500C2377.85 3500 2360 3482.15 2360 3460.14Z" fill="#766193" fill-rule="evenodd"/><text fill="#FFFFFF" font-family="Imperial Sans Text,Imperial Sans Text_MSFontService,sans-serif" font-weight="400" font-size="32" transform="translate(2416.82 3407)">Data Output:</text><text fill="#FFFFFF" font-family="Imperial Sans Text,Imperial Sans Text_MSFontService,sans-serif" font-weight="400" font-size="32" transform="translate(2438.4 3446)">Synthetic</text><text fill="#FFFFFF" font-family="Imperial Sans Text,Imperial Sans Text_MSFontService,sans-serif" font-weight="400" font-size="32" transform="translate(2430.74 3484)">Population</text><path d="M933 3433.17 957.566 3433.17 957.566 3435.07 955.733 3433.23 961.9 3433.23 961.9 3436.9 953.9 3436.9 953.9 3435 955.733 3436.83 933 3436.83ZM960.067 3429.57 978.4 3435.07 960.067 3440.57Z" fill="#375E69"/><path d="M1263 3434.17 1293.5 3434.2 1293.5 3437.87 1263 3437.83ZM1291.77 3430.5 1310 3436.33 1291.57 3441.5Z" fill="#375E69"/><path d="M1580 3434.17 1610.5 3434.2 1610.5 3437.87 1580 3437.83ZM1608.77 3430.5 1627 3436.33 1608.57 3441.5Z" fill="#375E69"/><path d="M0.00377282-1.83333 19.441-1.79333 19.4335 1.87333-0.00377282 1.83333ZM17.7244-5.49869 35.9333 0.4 17.4844 5.49869Z" fill="#375E69" transform="matrix(1 0 0 -1 1947 3435.4)"/><path d="M2147.57 3515 2147.57 3575.3 1443.17 3575.3 1443.17 3531.83 1446.83 3531.83 1446.83 3573.47 1445 3571.63 2145.73 3571.63 2143.9 3573.47 2143.9 3515ZM1439.5 3533.67 1445 3515.33 1450.5 3533.67Z" fill="#375E69"/><path d="M0-1.83333 27.3665-1.83333 27.3665 0.866667 25.5331-0.966667 34.5-0.966667 34.5 2.7 23.6998 2.7 23.6998 0 25.5331 1.83333 0 1.83333ZM32.6667-4.63333 51 0.866667 32.6667 6.36667Z" fill="#375E69" transform="matrix(1 0 0 -1 2309 3434.87)"/><text font-family="Imperial Sans Text,Imperial Sans Text_MSFontService,sans-serif" font-weight="700" font-size="27" transform="translate(1768.2 3563)">No</text><text font-family="Imperial Sans Text,Imperial Sans Text_MSFontService,sans-serif" font-weight="700" font-size="27" transform="translate(2310.93 3422)">Yes</text><path d="M1642 3210.44C1642 3189.76 1658.76 3173 1679.44 3173L1895.56 3173C1916.24 3173 1933 3189.76 1933 3210.44L1933 3259.56C1933 3280.24 1916.24 3297 1895.56 3297L1679.44 3297C1658.76 3297 1642 3280.24 1642 3259.56Z" fill="#4E77A4" fill-rule="evenodd"/><text fill="#FFFFFF" font-family="Imperial Sans Text,Imperial Sans Text_MSFontService,sans-serif" font-weight="400" font-size="32" transform="translate(1666.93 3246)">Census Statistics</text><path d="M1789.5 3298 1789.5 3329.07 1787 3329.07 1788.83 3327.23 1788.83 3339.97 1785.17 3339.97 1785.17 3325.4 1787.67 3325.4 1785.83 3327.23 1785.83 3298ZM1792.5 3338.13 1787 3356.47 1781.5 3338.13Z" fill="#375E69"/><path d="M665 3233.02C665 3222.52 673.517 3214 684.024 3214L891.976 3214C902.483 3214 911 3222.52 911 3233.02L911 3257.98C911 3268.48 902.483 3277 891.976 3277L684.024 3277C673.517 3277 665 3268.48 665 3257.98Z" fill="#4E77A4" fill-rule="evenodd"/><text fill="#FFFFFF" font-family="Imperial Sans Text,Imperial Sans Text_MSFontService,sans-serif" font-weight="400" font-size="24" transform="translate(734 3254)">Input Data</text><path d="M1219 3233.02C1219 3222.52 1227.52 3214 1238.02 3214L1445.98 3214C1456.48 3214 1465 3222.52 1465 3233.02L1465 3257.98C1465 3268.48 1456.48 3277 1445.98 3277L1238.02 3277C1227.52 3277 1219 3268.48 1219 3257.98Z" fill="#766193" fill-rule="evenodd"/><text fill="#FFFFFF" font-family="Imperial Sans Text,Imperial Sans Text_MSFontService,sans-serif" font-weight="400" font-size="24" transform="translate(1260.83 3254)">Process Output</text><rect x="944" y="3214" width="246" height="63" fill="#4E7F74"/><text fill="#FFFFFF" font-family="Imperial Sans Text,Imperial Sans Text_MSFontService,sans-serif" font-weight="400" font-size="24" transform="translate(967.65 3254)">Functional Process</text><text font-family="Imperial Sans Text,Imperial Sans Text_MSFontService,sans-serif" font-weight="700" font-size="27" transform="translate(674.8 3202)">Components</text></g></svg>