<svg width="5415" height="1560" xmlns="http://www.w3.org/2000/svg" xmlns:xlink="http://www.w3.org/1999/xlink" xml:space="preserve" overflow="hidden"><defs><clipPath id="clip0"><rect x="-287" y="514" width="5415" height="1560"/></clipPath></defs><g clip-path="url(#clip0)" transform="translate(287 -514)"><path d="M-287 628.748C-287 565.375-235.625 514-172.252 514L518.251 514C581.625 514 633 565.375 633 628.748L633 779.252C633 842.625 581.625 894 518.251 894L-172.252 894C-235.625 894-287 842.625-287 779.252Z" fill="#4E77A4" fill-rule="evenodd"/><text fill="#FFFFFF" font-family="Times New Roman,Times New Roman_MSFontService,sans-serif" font-weight="400" font-size="92" transform="matrix(1 0 0 1 -185.224 683)">Micro Sample Data</text><text fill="#FFFFFF" font-family="Times New Roman,Times New Roman_MSFontService,sans-serif" font-weight="400" font-size="92" transform="matrix(1 0 0 1 -135.38 793)">Census Statistics</text><rect x="855" y="515" width="908" height="379" fill="#4E7F74"/><text fill="#FFFFFF" font-family="Times New Roman,Times New Roman_MSFontService,sans-serif" font-weight="400" font-size="92" transform="matrix(1 0 0 1 926.922 684)">Synthetic Poputation </text><text fill="#FFFFFF" font-family="Times New Roman,Times New Roman_MSFontService,sans-serif" font-weight="400" font-size="92" transform="matrix(1 0 0 1 1105.95 794)">Generation</text><rect x="855" y="1171" width="908" height="378" fill="#4E7F74"/><text fill="#FFFFFF" font-family="Times New Roman,Times New Roman_MSFontService,sans-serif" font-weight="400" font-size="92" transform="matrix(1 0 0 1 1075.58 1339)">E</text><text fill="#FFFFFF" font-family="Times New Roman,Times New Roman_MSFontService,sans-serif" font-weight="400" font-size="92" transform="matrix(1 0 0 1 1131.73 1339)">-</text><text fill="#FFFFFF" font-family="Times New Roman,Times New Roman_MSFontService,sans-serif" font-weight="400" font-size="92" transform="matrix(1 0 0 1 1162.09 1339)">commerce </text><text fill="#FFFFFF" font-family="Times New Roman,Times New Roman_MSFontService,sans-serif" font-weight="400" font-size="92" transform="matrix(1 0 0 1 916.609 1449)">Behaviour Modelling</text><rect x="3108" y="842" width="1159" height="379" fill="#4E7F74"/><text fill="#FFFFFF" font-family="Times New Roman,Times New Roman_MSFontService,sans-serif" font-weight="400" font-size="92" transform="matrix(1 0 0 1 3169.15 1010)">Synthetic Order Generation: </text><text fill="#FFFFFF" font-family="Times New Roman,Times New Roman_MSFontService,sans-serif" font-weight="400" font-size="92" transform="matrix(1 0 0 1 3268.26 1120)">Monte Carlo Sampling</text><path d="M1964 629.352C1964 565.645 2015.64 514 2079.35 514L2745.65 514C2809.35 514 2861 565.645 2861 629.352L2861 780.648C2861 844.355 2809.35 896 2745.65 896L2079.35 896C2015.64 896 1964 844.355 1964 780.648Z" fill="#766193" fill-rule="evenodd"/><text fill="#FFFFFF" font-family="Times New Roman,Times New Roman_MSFontService,sans-serif" font-weight="400" font-size="92" transform="matrix(1 0 0 1 2239.81 684)">Synthetic </text><text fill="#FFFFFF" font-family="Times New Roman,Times New Roman_MSFontService,sans-serif" font-weight="400" font-size="92" transform="matrix(1 0 0 1 2214.32 794)">Population</text><path d="M633.5 698.198 750.948 698.198 750.948 704.729 744.646 698.427 799.073 698.427 799.073 711.031 738.344 711.031 738.344 704.5 744.646 710.802 633.5 710.802ZM792.771 685.823 855.792 704.729 792.771 723.635Z"/><path d="M4267.51 1025.2 4357.69 1025.31 4357.68 1037.92 4267.49 1037.8ZM4351.73 1012.6 4414.4 1032.65 4351.04 1050.4Z"/><path d="M2861.5 699.198 2991.55 699.198 2991.55 1032.29 2985.25 1025.99 3052.05 1025.99 3052.05 1038.59 2978.95 1038.59 2978.95 705.5 2985.25 711.802 2861.5 711.802ZM3045.75 1013.39 3108.77 1032.29 3045.75 1051.2Z"/><path d="M1763.5 699.198 1907.55 699.312 1907.54 711.917 1763.49 711.802ZM1901.58 686.597 1964.25 706.646 1900.9 724.403Z"/><path d="M0-6.30208 117.448-6.30208 117.448 0.6875 111.146-5.61458 165.573-5.61458 165.573 6.98958 104.844 6.98958 104.844 0 111.146 6.30208 0 6.30208ZM159.271-18.2188 222.292 0.6875 159.271 19.5938Z" transform="matrix(1 0 0 -1 633.5 1361.19)"/><path d="M-287 1284.75C-287 1221.37-235.625 1170-172.252 1170L518.251 1170C581.625 1170 633 1221.37 633 1284.75L633 1435.25C633 1498.63 581.625 1550 518.251 1550L-172.252 1550C-235.625 1550-287 1498.63-287 1435.25Z" fill="#4E77A4" fill-rule="evenodd"/><text fill="#FFFFFF" font-family="Times New Roman,Times New Roman_MSFontService,sans-serif" font-weight="400" font-size="92" transform="matrix(1 0 0 1 -50.3136 1339)">Muti</text><text fill="#FFFFFF" font-family="Times New Roman,Times New Roman_MSFontService,sans-serif" font-weight="400" font-size="92" transform="matrix(1 0 0 1 127.291 1339)">-</text><text fill="#FFFFFF" font-family="Times New Roman,Times New Roman_MSFontService,sans-serif" font-weight="400" font-size="92" transform="matrix(1 0 0 1 157.655 1339)">source </text><text fill="#FFFFFF" font-family="Times New Roman,Times New Roman_MSFontService,sans-serif" font-weight="400" font-size="92" transform="matrix(1 0 0 1 -214.443 1449)">E</text><text fill="#FFFFFF" font-family="Times New Roman,Times New Roman_MSFontService,sans-serif" font-weight="400" font-size="92" transform="matrix(1 0 0 1 -158.297 1449)">-</text><text fill="#FFFFFF" font-family="Times New Roman,Times New Roman_MSFontService,sans-serif" font-weight="400" font-size="92" transform="matrix(1 0 0 1 -127.932 1449)">commerce Reports</text><path d="M1964 1283.75C1964 1220.37 2015.37 1169 2078.75 1169L2746.25 1169C2809.63 1169 2861 1220.37 2861 1283.75L2861 1434.25C2861 1497.63 2809.63 1549 2746.25 1549L2078.75 1549C2015.37 1549 1964 1497.63 1964 1434.25Z" fill="#766193" fill-rule="evenodd"/><text fill="#FFFFFF" font-family="Times New Roman,Times New Roman_MSFontService,sans-serif" font-weight="400" font-size="92" transform="matrix(1 0 0 1 2116.35 1338)">Fuzzy Inference </text><text fill="#FFFFFF" font-family="Times New Roman,Times New Roman_MSFontService,sans-serif" font-weight="400" font-size="92" transform="matrix(1 0 0 1 2207.75 1448)">Rule Bases</text><path d="M0-6.30208 106.677-6.30208 106.677 0.458333 100.375-5.84375 144.031-5.84375 144.031 6.76042 94.0729 6.76042 94.0729 0 100.375 6.30208 0 6.30208ZM137.729-18.4479 200.75 0.458333 137.729 19.3646Z" transform="matrix(1 0 0 -1 1763.5 1359.96)"/><path d="M4414 956.447C4414 893.239 4465.24 842 4528.45 842L5013.55 842C5076.76 842 5128 893.239 5128 956.447L5128 1106.55C5128 1169.76 5076.76 1221 5013.55 1221L4528.45 1221C4465.24 1221 4414 1169.76 4414 1106.55Z" fill="#766193" fill-rule="evenodd"/><text fill="#FFFFFF" font-family="Times New Roman,Times New Roman_MSFontService,sans-serif" font-weight="400" font-size="92" transform="matrix(1 0 0 1 4598.29 1010)">Synthetic </text><text fill="#FFFFFF" font-family="Times New Roman,Times New Roman_MSFontService,sans-serif" font-weight="400" font-size="92" transform="matrix(1 0 0 1 4664.17 1120)">Order</text><path d="M0-6.30208 130.051-6.30208 130.051 327.708 123.749 321.406 190.552 321.406 190.552 334.01 117.447 334.01 117.447 0 123.749 6.30208 0 6.30208ZM184.25 308.802 247.271 327.708 184.25 346.615Z" transform="matrix(1 0 0 -1 2861.5 1359.21)"/><path d="M306 1922.53C306 1886.34 335.338 1857 371.528 1857L1087.47 1857C1123.66 1857 1153 1886.34 1153 1922.53L1153 2008.47C1153 2044.66 1123.66 2074 1087.47 2074L371.528 2074C335.338 2074 306 2044.66 306 2008.47Z" fill="#4E77A4" fill-rule="evenodd"/><text fill="#FFFFFF" font-family="Times New Roman,Times New Roman_MSFontService,sans-serif" font-weight="400" font-size="73" transform="matrix(1 0 0 1 366.208 1992)">Input: </text><text fill="#FFFFFF" font-family="Times New Roman,Times New Roman_MSFontService,sans-serif" font-weight="400" font-size="73" transform="matrix(1 0 0 1 560.427 1992)">Open</text><text fill="#FFFFFF" font-family="Times New Roman,Times New Roman_MSFontService,sans-serif" font-weight="400" font-size="73" transform="matrix(1 0 0 1 719.125 1992)">-</text><text fill="#FFFFFF" font-family="Times New Roman,Times New Roman_MSFontService,sans-serif" font-weight="400" font-size="73" transform="matrix(1 0 0 1 743.76 1992)">s</text><text fill="#FFFFFF" font-family="Times New Roman,Times New Roman_MSFontService,sans-serif" font-weight="400" font-size="73" transform="matrix(1 0 0 1 772.406 1992)">ource </text><text fill="#FFFFFF" font-family="Times New Roman,Times New Roman_MSFontService,sans-serif" font-weight="400" font-size="73" transform="matrix(1 0 0 1 954.021 1992)">Data</text><path d="M2209 1921.23C2209 1885.2 2238.2 1856 2274.23 1856L2989.77 1856C3025.8 1856 3055 1885.2 3055 1921.23L3055 2006.77C3055 2042.8 3025.8 2072 2989.77 2072L2274.23 2072C2238.2 2072 2209 2042.8 2209 2006.77Z" fill="#766193" fill-rule="evenodd"/><text fill="#FFFFFF" font-family="Times New Roman,Times New Roman_MSFontService,sans-serif" font-weight="400" font-size="73" transform="matrix(1 0 0 1 2406.65 1991)">Module Output</text><rect x="1265" y="1857" width="847" height="217" fill="#4E7F74"/><text fill="#FFFFFF" font-family="Times New Roman,Times New Roman_MSFontService,sans-serif" font-weight="400" font-size="73" transform="matrix(1 0 0 1 1395.4 1992)">Framework Module</text><text font-family="Times New Roman,Times New Roman_MSFontService,sans-serif" font-weight="700" font-size="83" transform="matrix(1 0 0 1 339.167 1810)">Components</text></g></svg>