<?xml version="1.0" encoding="UTF-8"?>
<svg xmlns="http://www.w3.org/2000/svg" version="1.1" width="1024" height="1024" viewBox="0 0 500 500"><g transform="scale(16.129)"><g transform="translate(1,1)"><g><g transform="translate(3.5,3.5)"><path fill-rule="evenodd" d="M-3.5 0C-3.5 3.5 -3.5 3.5 0 3.5C3.5 3.5 3.5 3.5 3.5 0C3.5 -3.5 3.5 -3.5 0 -3.5C-3.5 -3.5 -3.5 -3.5 -3.5 0ZM-2.5 0L-2.5 -1.5A1 1 0 0 1 -1.5 -2.5L1.5 -2.5A1 1 0 0 1 2.5 -1.5L2.5 1.5A1 1 0 0 1 1.5 2.5L-1.5 2.5A1 1 0 0 1 -2.5 1.5Z" fill="#000000"/><path fill-rule="evenodd" d="M-1.5 0C-1.5 1.5 -1.5 1.5 0 1.5C1.5 1.5 1.5 1.5 1.5 0C1.5 -1.5 1.5 -1.5 0 -1.5C-1.5 -1.5 -1.5 -1.5 -1.5 0Z" fill="#000000"/></g></g><g><g transform="translate(25.5,3.5)"><g transform="rotate(90)"><path fill-rule="evenodd" d="M-3.5 0C-3.5 3.5 -3.5 3.5 0 3.5C3.5 3.5 3.5 3.5 3.5 0C3.5 -3.5 3.5 -3.5 0 -3.5C-3.5 -3.5 -3.5 -3.5 -3.5 0ZM-2.5 0L-2.5 -1.5A1 1 0 0 1 -1.5 -2.5L1.5 -2.5A1 1 0 0 1 2.5 -1.5L2.5 1.5A1 1 0 0 1 1.5 2.5L-1.5 2.5A1 1 0 0 1 -2.5 1.5Z" fill="#000000"/><path fill-rule="evenodd" d="M-1.5 0C-1.5 1.5 -1.5 1.5 0 1.5C1.5 1.5 1.5 1.5 1.5 0C1.5 -1.5 1.5 -1.5 0 -1.5C-1.5 -1.5 -1.5 -1.5 -1.5 0Z" fill="#000000"/></g></g></g><g><g transform="translate(3.5,25.5)"><g transform="rotate(-90)"><path fill-rule="evenodd" d="M-3.5 0C-3.5 3.5 -3.5 3.5 0 3.5C3.5 3.5 3.5 3.5 3.5 0C3.5 -3.5 3.5 -3.5 0 -3.5C-3.5 -3.5 -3.5 -3.5 -3.5 0ZM-2.5 0L-2.5 -1.5A1 1 0 0 1 -1.5 -2.5L1.5 -2.5A1 1 0 0 1 2.5 -1.5L2.5 1.5A1 1 0 0 1 1.5 2.5L-1.5 2.5A1 1 0 0 1 -2.5 1.5Z" fill="#000000"/><path fill-rule="evenodd" d="M-1.5 0C-1.5 1.5 -1.5 1.5 0 1.5C1.5 1.5 1.5 1.5 1.5 0C1.5 -1.5 1.5 -1.5 0 -1.5C-1.5 -1.5 -1.5 -1.5 -1.5 0Z" fill="#000000"/></g></g></g><path fill-rule="evenodd" d="M9 0.25L9 1.75A0.25 0.25 0 0 1 8.75 2L8.25 2A0.25 0.25 0 0 0 8 2.25L8 7.75A0.25 0.25 0 0 0 8.25 8L8.75 8A0.25 0.25 0 0 1 9 8.25L9 8.75A0.25 0.25 0 0 0 9.25 9L9.75 9A0.25 0.25 0 0 0 10 8.75L10 8.25A0.25 0.25 0 0 1 10.25 8L10.75 8A0.25 0.25 0 0 1 11 8.25L11 9.75A0.25 0.25 0 0 1 10.75 10L9.25 10A0.25 0.25 0 0 0 9 10.25L9 11.75A0.25 0.25 0 0 1 8.75 12L8.25 12A0.25 0.25 0 0 1 8 11.75L8 11.25A0.25 0.25 0 0 0 7.75 11L7.25 11A0.25 0.25 0 0 1 7 10.75L7 10.25A0.25 0.25 0 0 0 6.75 10L6.25 10A0.25 0.25 0 0 1 6 9.75L6 9.25A0.25 0.25 0 0 1 6.25 9L6.75 9A0.25 0.25 0 0 0 7 8.75L7 8.25A0.25 0.25 0 0 0 6.75 8L2.25 8A0.25 0.25 0 0 0 2 8.25L2 8.75A0.25 0.25 0 0 0 2.25 9L3.75 9A0.25 0.25 0 0 1 4 9.25L4 9.75A0.25 0.25 0 0 1 3.75 10L3.25 10A0.25 0.25 0 0 0 3 10.25L3 11.75A0.25 0.25 0 0 1 2.75 12L2.25 12A0.25 0.25 0 0 1 2 11.75L2 11.25A0.25 0.25 0 0 0 1.75 11L1.25 11A0.25 0.25 0 0 1 1 10.75L1 8.25A0.25 0.25 0 0 0 0.75 8L0.25 8A0.25 0.25 0 0 0 0 8.25L0 11.75A0.25 0.25 0 0 0 0.25 12L1.75 12A0.25 0.25 0 0 1 2 12.25L2 13.75A0.25 0.25 0 0 0 2.25 14L2.75 14A0.25 0.25 0 0 0 3 13.75L3 12.25A0.25 0.25 0 0 1 3.25 12L3.75 12A0.25 0.25 0 0 1 4 12.25L4 12.75A0.25 0.25 0 0 0 4.25 13L7.75 13A0.25 0.25 0 0 1 8 13.25L8 13.75A0.25 0.25 0 0 1 7.75 14L4.25 14A0.25 0.25 0 0 0 4 14.25L4 14.75A0.25 0.25 0 0 1 3.75 15L1.25 15A0.25 0.25 0 0 1 1 14.75L1 14.25A0.25 0.25 0 0 0 0.75 14L0.25 14A0.25 0.25 0 0 0 0 14.25L0 15.75A0.25 0.25 0 0 0 0.25 16L1.75 16A0.25 0.25 0 0 1 2 16.25L2 17.75A0.25 0.25 0 0 0 2.25 18L2.75 18A0.25 0.25 0 0 1 3 18.25L3 18.75A0.25 0.25 0 0 0 3.25 19L3.75 19A0.25 0.25 0 0 1 4 19.25L4 19.75A0.25 0.25 0 0 1 3.75 20L3.25 20A0.25 0.25 0 0 0 3 20.25L3 20.75A0.25 0.25 0 0 0 3.25 21L6.75 21A0.25 0.25 0 0 0 7 20.75L7 20.25A0.25 0.25 0 0 1 7.25 20L8.75 20A0.25 0.25 0 0 0 9 19.75L9 19.25A0.25 0.25 0 0 1 9.25 19L9.75 19A0.25 0.25 0 0 0 10 18.75L10 18.25A0.25 0.25 0 0 0 9.75 18L9.25 18A0.25 0.25 0 0 1 9 17.75L9 17.25A0.25 0.25 0 0 0 8.75 17L8.25 17A0.25 0.25 0 0 1 8 16.75L8 14.25A0.25 0.25 0 0 1 8.25 14L8.75 14A0.25 0.25 0 0 0 9 13.75L9 13.25A0.25 0.25 0 0 1 9.25 13L10.75 13A0.25 0.25 0 0 1 11 13.25L11 13.75A0.25 0.25 0 0 1 10.75 14L10.25 14A0.25 0.25 0 0 0 10 14.25L10 14.75A0.25 0.25 0 0 1 9.75 15L9.25 15A0.25 0.25 0 0 0 9 15.25L9 15.75A0.25 0.25 0 0 0 9.25 16L9.75 16A0.25 0.25 0 0 1 10 16.25L10 16.75A0.25 0.25 0 0 0 10.25 17L10.75 17A0.25 0.25 0 0 1 11 17.25L11 17.75A0.25 0.25 0 0 0 11.25 18L11.75 18A0.25 0.25 0 0 1 12 18.25L12 18.75A0.25 0.25 0 0 1 11.75 19L11.25 19A0.25 0.25 0 0 0 11 19.25L11 19.75A0.25 0.25 0 0 1 10.75 20L10.25 20A0.25 0.25 0 0 0 10 20.25L10 20.75A0.25 0.25 0 0 1 9.75 21L8.25 21A0.25 0.25 0 0 0 8 21.25L8 21.75A0.25 0.25 0 0 0 8.25 22L8.75 22A0.25 0.25 0 0 1 9 22.25L9 22.75A0.25 0.25 0 0 1 8.75 23L8.25 23A0.25 0.25 0 0 0 8 23.25L8 26.75A0.25 0.25 0 0 0 8.25 27L8.75 27A0.25 0.25 0 0 1 9 27.25L9 27.75A0.25 0.25 0 0 1 8.75 28L8.25 28A0.25 0.25 0 0 0 8 28.25L8 28.75A0.25 0.25 0 0 0 8.25 29L11.75 29A0.25 0.25 0 0 0 12 28.75L12 27.25A0.25 0.25 0 0 1 12.25 27L12.75 27A0.25 0.25 0 0 1 13 27.25L13 27.75A0.25 0.25 0 0 0 13.25 28L14.75 28A0.25 0.25 0 0 0 15 27.75L15 26.25A0.25 0.25 0 0 1 15.25 26L16.75 26A0.25 0.25 0 0 0 17 25.75L17 25.25A0.25 0.25 0 0 1 17.25 25L17.75 25A0.25 0.25 0 0 1 18 25.25L18 28.75A0.25 0.25 0 0 0 18.25 29L19.75 29A0.25 0.25 0 0 0 20 28.75L20 28.25A0.25 0.25 0 0 0 19.75 28L19.25 28A0.25 0.25 0 0 1 19 27.75L19 25.25A0.25 0.25 0 0 1 19.25 25L19.75 25A0.25 0.25 0 0 1 20 25.25L20 25.75A0.25 0.25 0 0 0 20.25 26L20.75 26A0.25 0.25 0 0 0 21 25.75L21 25.25A0.25 0.25 0 0 1 21.25 25L22.75 25A0.25 0.25 0 0 1 23 25.25L23 26.75A0.25 0.25 0 0 0 23.25 27L23.75 27A0.25 0.25 0 0 0 24 26.75L24 25.25A0.25 0.25 0 0 1 24.25 25L24.75 25A0.25 0.25 0 0 0 25 24.75L25 23.25A0.25 0.25 0 0 1 25.25 23L25.75 23A0.25 0.25 0 0 1 26 23.25L26 24.75A0.25 0.25 0 0 0 26.25 25L28.75 25A0.25 0.25 0 0 0 29 24.75L29 23.25A0.25 0.25 0 0 0 28.75 23L27.25 23A0.25 0.25 0 0 1 27 22.75L27 22.25A0.25 0.25 0 0 1 27.25 22L27.75 22A0.25 0.25 0 0 0 28 21.75L28 20.25A0.25 0.25 0 0 0 27.75 20L25.25 20A0.25 0.25 0 0 1 25 19.75L25 19.25A0.25 0.25 0 0 1 25.25 19L28.75 19A0.25 0.25 0 0 0 29 18.75L29 17.25A0.25 0.25 0 0 0 28.75 17L28.25 17A0.25 0.25 0 0 0 28 17.25L28 17.75A0.25 0.25 0 0 1 27.75 18L26.25 18A0.25 0.25 0 0 1 26 17.75L26 17.25A0.25 0.25 0 0 0 25.75 17L24.25 17A0.25 0.25 0 0 1 24 16.75L24 16.25A0.25 0.25 0 0 1 24.25 16L24.75 16A0.25 0.25 0 0 0 25 15.75L25 15.25A0.25 0.25 0 0 1 25.25 15L26.75 15A0.25 0.25 0 0 1 27 15.25L27 15.75A0.25 0.25 0 0 0 27.25 16L28.75 16A0.25 0.25 0 0 0 29 15.75L29 14.25A0.25 0.25 0 0 0 28.75 14L28.25 14A0.25 0.25 0 0 1 28 13.75L28 13.25A0.25 0.25 0 0 0 27.75 13L27.25 13A0.25 0.25 0 0 0 27 13.25L27 13.75A0.25 0.25 0 0 1 26.75 14L26.25 14A0.25 0.25 0 0 1 26 13.75L26 13.25A0.25 0.25 0 0 0 25.75 13L24.25 13A0.25 0.25 0 0 1 24 12.75L24 12.25A0.25 0.25 0 0 1 24.25 12L25.75 12A0.25 0.25 0 0 0 26 11.75L26 11.25A0.25 0.25 0 0 1 26.25 11L26.75 11A0.25 0.25 0 0 0 27 10.75L27 10.25A0.25 0.25 0 0 1 27.25 10L27.75 10A0.25 0.25 0 0 0 28 9.75L28 9.25A0.25 0.25 0 0 0 27.75 9L27.25 9A0.25 0.25 0 0 1 27 8.75L27 8.25A0.25 0.25 0 0 0 26.75 8L22.25 8A0.25 0.25 0 0 0 22 8.25L22 8.75A0.25 0.25 0 0 0 22.25 9L23.75 9A0.25 0.25 0 0 1 24 9.25L24 9.75A0.25 0.25 0 0 0 24.25 10L24.75 10A0.25 0.25 0 0 1 25 10.25L25 10.75A0.25 0.25 0 0 1 24.75 11L19.25 11A0.25 0.25 0 0 1 19 10.75L19 10.25A0.25 0.25 0 0 1 19.25 10L20.75 10A0.25 0.25 0 0 0 21 9.75L21 6.25A0.25 0.25 0 0 0 20.75 6L20.25 6A0.25 0.25 0 0 0 20 6.25L20 6.75A0.25 0.25 0 0 1 19.75 7L19.25 7A0.25 0.25 0 0 1 19 6.75L19 6.25A0.25 0.25 0 0 0 18.75 6L18.25 6A0.25 0.25 0 0 1 18 5.75L18 5.25A0.25 0.25 0 0 1 18.25 5L18.75 5A0.25 0.25 0 0 0 19 4.75L19 3.25A0.25 0.25 0 0 1 19.25 3L19.75 3A0.25 0.25 0 0 1 20 3.25L20 4.75A0.25 0.25 0 0 0 20.25 5L20.75 5A0.25 0.25 0 0 0 21 4.75L21 3.25A0.25 0.25 0 0 0 20.75 3L20.25 3A0.25 0.25 0 0 1 20 2.75L20 1.25A0.25 0.25 0 0 1 20.25 1L20.75 1A0.25 0.25 0 0 0 21 0.75L21 0.25A0.25 0.25 0 0 0 20.75 0L19.25 0A0.25 0.25 0 0 0 19 0.25L19 2.75A0.25 0.25 0 0 1 18.75 3L17.25 3A0.25 0.25 0 0 1 17 2.75L17 2.25A0.25 0.25 0 0 0 16.75 2L16.25 2A0.25 0.25 0 0 0 16 2.25L16 3.75A0.25 0.25 0 0 1 15.75 4L12.25 4A0.25 0.25 0 0 1 12 3.75L12 3.25A0.25 0.25 0 0 1 12.25 3L12.75 3A0.25 0.25 0 0 0 13 2.75L13 0.25A0.25 0.25 0 0 0 12.75 0L11.25 0A0.25 0.25 0 0 0 11 0.25L11 0.75A0.25 0.25 0 0 0 11.25 1L11.75 1A0.25 0.25 0 0 1 12 1.25L12 2.75A0.25 0.25 0 0 1 11.75 3L11.25 3A0.25 0.25 0 0 1 11 2.75L11 2.25A0.25 0.25 0 0 0 10.75 2L10.25 2A0.25 0.25 0 0 1 10 1.75L10 0.25A0.25 0.25 0 0 0 9.75 0L9.25 0A0.25 0.25 0 0 0 9 0.25ZM15 0.25L15 0.75A0.25 0.25 0 0 0 15.25 1L16.75 1A0.25 0.25 0 0 0 17 0.75L17 0.25A0.25 0.25 0 0 0 16.75 0L15.25 0A0.25 0.25 0 0 0 15 0.25ZM9 2.25L9 3.75A0.25 0.25 0 0 0 9.25 4L9.75 4A0.25 0.25 0 0 1 10 4.25L10 4.75A0.25 0.25 0 0 1 9.75 5L9.25 5A0.25 0.25 0 0 0 9 5.25L9 6.75A0.25 0.25 0 0 0 9.25 7L9.75 7A0.25 0.25 0 0 0 10 6.75L10 5.25A0.25 0.25 0 0 1 10.25 5L11.75 5A0.25 0.25 0 0 0 12 4.75L12 4.25A0.25 0.25 0 0 0 11.75 4L11.25 4A0.25 0.25 0 0 1 11 3.75L11 3.25A0.25 0.25 0 0 0 10.75 3L10.25 3A0.25 0.25 0 0 1 10 2.75L10 2.25A0.25 0.25 0 0 0 9.75 2L9.25 2A0.25 0.25 0 0 0 9 2.25ZM14 2.25L14 2.75A0.25 0.25 0 0 0 14.25 3L14.75 3A0.25 0.25 0 0 0 15 2.75L15 2.25A0.25 0.25 0 0 0 14.75 2L14.25 2A0.25 0.25 0 0 0 14 2.25ZM16 4.25L16 4.75A0.25 0.25 0 0 0 16.25 5L17.75 5A0.25 0.25 0 0 0 18 4.75L18 4.25A0.25 0.25 0 0 0 17.75 4L16.25 4A0.25 0.25 0 0 0 16 4.25ZM11 6.25L11 7.75A0.25 0.25 0 0 0 11.25 8L11.75 8A0.25 0.25 0 0 1 12 8.25L12 8.75A0.25 0.25 0 0 0 12.25 9L12.75 9A0.25 0.25 0 0 1 13 9.25L13 9.75A0.25 0.25 0 0 1 12.75 10L11.25 10A0.25 0.25 0 0 0 11 10.25L11 10.75A0.25 0.25 0 0 1 10.75 11L10.25 11A0.25 0.25 0 0 0 10 11.25L10 11.75A0.25 0.25 0 0 0 10.25 12L12.75 12A0.25 0.25 0 0 1 13 12.25L13 12.75A0.25 0.25 0 0 0 13.25 13L15.75 13A0.25 0.25 0 0 1 16 13.25L16 13.75A0.25 0.25 0 0 0 16.25 14L16.75 14A0.25 0.25 0 0 1 17 14.25L17 14.75A0.25 0.25 0 0 1 16.75 15L16.25 15A0.25 0.25 0 0 0 16 15.25L16 16.75A0.25 0.25 0 0 0 16.25 17L16.75 17A0.25 0.25 0 0 1 17 17.25L17 17.75A0.25 0.25 0 0 1 16.75 18L15.25 18A0.25 0.25 0 0 1 15 17.75L15 17.25A0.25 0.25 0 0 0 14.75 17L14.25 17A0.25 0.25 0 0 1 14 16.75L14 16.25A0.25 0.25 0 0 1 14.25 16L14.75 16A0.25 0.25 0 0 0 15 15.75L15 15.25A0.25 0.25 0 0 0 14.75 15L14.25 15A0.25 0.25 0 0 0 14 15.25L14 15.75A0.25 0.25 0 0 1 13.75 16L13.25 16A0.25 0.25 0 0 0 13 16.25L13 19.75A0.25 0.25 0 0 1 12.75 20L12.25 20A0.25 0.25 0 0 0 12 20.25L12 21.75A0.25 0.25 0 0 1 11.75 22L11.25 22A0.25 0.25 0 0 0 11 22.25L11 22.75A0.25 0.25 0 0 0 11.25 23L11.75 23A0.25 0.25 0 0 1 12 23.25L12 24.75A0.25 0.25 0 0 0 12.25 25L12.75 25A0.25 0.25 0 0 1 13 25.25L13 26.75A0.25 0.25 0 0 0 13.25 27L13.75 27A0.25 0.25 0 0 0 14 26.75L14 26.25A0.25 0.25 0 0 1 14.25 26L14.75 26A0.25 0.25 0 0 0 15 25.75L15 25.25A0.25 0.25 0 0 0 14.75 25L14.25 25A0.25 0.25 0 0 1 14 24.75L14 24.25A0.25 0.25 0 0 1 14.25 24L14.75 24A0.25 0.25 0 0 0 15 23.75L15 23.25A0.25 0.25 0 0 0 14.75 23L14.25 23A0.25 0.25 0 0 0 14 23.25L14 23.75A0.25 0.25 0 0 1 13.75 24L13.25 24A0.25 0.25 0 0 1 13 23.75L13 21.25A0.25 0.25 0 0 1 13.25 21L15.75 21A0.25 0.25 0 0 1 16 21.25L16 21.75A0.25 0.25 0 0 0 16.25 22L19.75 22A0.25 0.25 0 0 0 20 21.75L20 20.25A0.25 0.25 0 0 0 19.75 20L19.25 20A0.25 0.25 0 0 1 19 19.75L19 19.25A0.25 0.25 0 0 1 19.25 19L19.75 19A0.25 0.25 0 0 0 20 18.75L20 18.25A0.25 0.25 0 0 1 20.25 18L20.75 18A0.25 0.25 0 0 1 21 18.25L21 18.75A0.25 0.25 0 0 0 21.25 19L22.75 19A0.25 0.25 0 0 0 23 18.75L23 18.25A0.25 0.25 0 0 1 23.25 18L23.75 18A0.25 0.25 0 0 1 24 18.25L24 18.75A0.25 0.25 0 0 0 24.25 19L24.75 19A0.25 0.25 0 0 0 25 18.75L25 18.25A0.25 0.25 0 0 0 24.75 18L24.25 18A0.25 0.25 0 0 1 24 17.75L24 17.25A0.25 0.25 0 0 0 23.75 17L23.25 17A0.25 0.25 0 0 0 23 17.25L23 17.75A0.25 0.25 0 0 1 22.75 18L21.25 18A0.25 0.25 0 0 1 21 17.75L21 17.25A0.25 0.25 0 0 1 21.25 17L21.75 17A0.25 0.25 0 0 0 22 16.75L22 16.25A0.25 0.25 0 0 0 21.75 16L19.25 16A0.25 0.25 0 0 1 19 15.75L19 15.25A0.25 0.25 0 0 1 19.25 15L24.75 15A0.25 0.25 0 0 0 25 14.75L25 14.25A0.25 0.25 0 0 0 24.75 14L24.25 14A0.25 0.25 0 0 1 24 13.75L24 13.25A0.25 0.25 0 0 0 23.75 13L23.25 13A0.25 0.25 0 0 0 23 13.25L23 13.75A0.25 0.25 0 0 1 22.75 14L21.25 14A0.25 0.25 0 0 1 21 13.75L21 13.25A0.25 0.25 0 0 1 21.25 13L21.75 13A0.25 0.25 0 0 0 22 12.75L22 12.25A0.25 0.25 0 0 0 21.75 12L21.25 12A0.25 0.25 0 0 0 21 12.25L21 12.75A0.25 0.25 0 0 1 20.75 13L20.25 13A0.25 0.25 0 0 1 20 12.75L20 12.25A0.25 0.25 0 0 0 19.75 12L19.25 12A0.25 0.25 0 0 1 19 11.75L19 11.25A0.25 0.25 0 0 0 18.75 11L18.25 11A0.25 0.25 0 0 0 18 11.25L18 11.75A0.25 0.25 0 0 1 17.75 12L17.25 12A0.25 0.25 0 0 0 17 12.25L17 12.75A0.25 0.25 0 0 1 16.75 13L16.25 13A0.25 0.25 0 0 1 16 12.75L16 11.25A0.25 0.25 0 0 1 16.25 11L16.75 11A0.25 0.25 0 0 0 17 10.75L17 10.25A0.25 0.25 0 0 1 17.25 10L18.75 10A0.25 0.25 0 0 0 19 9.75L19 9.25A0.25 0.25 0 0 1 19.25 9L19.75 9A0.25 0.25 0 0 0 20 8.75L20 8.25A0.25 0.25 0 0 0 19.75 8L19.25 8A0.25 0.25 0 0 0 19 8.25L19 8.75A0.25 0.25 0 0 1 18.75 9L18.25 9A0.25 0.25 0 0 1 18 8.75L18 6.25A0.25 0.25 0 0 0 17.75 6L17.25 6A0.25 0.25 0 0 0 17 6.25L17 6.75A0.25 0.25 0 0 1 16.75 7L16.25 7A0.25 0.25 0 0 1 16 6.75L16 6.25A0.25 0.25 0 0 0 15.75 6L15.25 6A0.25 0.25 0 0 0 15 6.25L15 6.75A0.25 0.25 0 0 1 14.75 7L14.25 7A0.25 0.25 0 0 1 14 6.75L14 6.25A0.25 0.25 0 0 0 13.75 6L13.25 6A0.25 0.25 0 0 0 13 6.25L13 6.75A0.25 0.25 0 0 0 13.25 7L13.75 7A0.25 0.25 0 0 1 14 7.25L14 7.75A0.25 0.25 0 0 1 13.75 8L12.25 8A0.25 0.25 0 0 1 12 7.75L12 6.25A0.25 0.25 0 0 0 11.75 6L11.25 6A0.25 0.25 0 0 0 11 6.25ZM15 7.25L15 7.75A0.25 0.25 0 0 1 14.75 8L14.25 8A0.25 0.25 0 0 0 14 8.25L14 8.75A0.25 0.25 0 0 0 14.25 9L14.75 9A0.25 0.25 0 0 1 15 9.25L15 9.75A0.25 0.25 0 0 0 15.25 10L16.75 10A0.25 0.25 0 0 0 17 9.75L17 9.25A0.25 0.25 0 0 0 16.75 9L16.25 9A0.25 0.25 0 0 1 16 8.75L16 7.25A0.25 0.25 0 0 0 15.75 7L15.25 7A0.25 0.25 0 0 0 15 7.25ZM26 9.25L26 9.75A0.25 0.25 0 0 0 26.25 10L26.75 10A0.25 0.25 0 0 0 27 9.75L27 9.25A0.25 0.25 0 0 0 26.75 9L26.25 9A0.25 0.25 0 0 0 26 9.25ZM4 10.25L4 10.75A0.25 0.25 0 0 0 4.25 11L4.75 11A0.25 0.25 0 0 1 5 11.25L5 11.75A0.25 0.25 0 0 0 5.25 12L6.75 12A0.25 0.25 0 0 0 7 11.75L7 11.25A0.25 0.25 0 0 0 6.75 11L6.25 11A0.25 0.25 0 0 1 6 10.75L6 10.25A0.25 0.25 0 0 0 5.75 10L4.25 10A0.25 0.25 0 0 0 4 10.25ZM14 11.25L14 11.75A0.25 0.25 0 0 0 14.25 12L14.75 12A0.25 0.25 0 0 0 15 11.75L15 11.25A0.25 0.25 0 0 0 14.75 11L14.25 11A0.25 0.25 0 0 0 14 11.25ZM28 11.25L28 11.75A0.25 0.25 0 0 0 28.25 12L28.75 12A0.25 0.25 0 0 0 29 11.75L29 11.25A0.25 0.25 0 0 0 28.75 11L28.25 11A0.25 0.25 0 0 0 28 11.25ZM18 12.25L18 12.75A0.25 0.25 0 0 0 18.25 13L18.75 13A0.25 0.25 0 0 0 19 12.75L19 12.25A0.25 0.25 0 0 0 18.75 12L18.25 12A0.25 0.25 0 0 0 18 12.25ZM11 14.25L11 15.75A0.25 0.25 0 0 0 11.25 16L11.75 16A0.25 0.25 0 0 0 12 15.75L12 15.25A0.25 0.25 0 0 1 12.25 15L12.75 15A0.25 0.25 0 0 0 13 14.75L13 14.25A0.25 0.25 0 0 0 12.75 14L11.25 14A0.25 0.25 0 0 0 11 14.25ZM5 15.25L5 15.75A0.25 0.25 0 0 1 4.75 16L4.25 16A0.25 0.25 0 0 0 4 16.25L4 16.75A0.25 0.25 0 0 1 3.75 17L3.25 17A0.25 0.25 0 0 0 3 17.25L3 17.75A0.25 0.25 0 0 0 3.25 18L4.75 18A0.25 0.25 0 0 1 5 18.25L5 19.75A0.25 0.25 0 0 0 5.25 20L6.75 20A0.25 0.25 0 0 0 7 19.75L7 19.25A0.25 0.25 0 0 0 6.75 19L6.25 19A0.25 0.25 0 0 1 6 18.75L6 18.25A0.25 0.25 0 0 1 6.25 18L6.75 18A0.25 0.25 0 0 0 7 17.75L7 17.25A0.25 0.25 0 0 0 6.75 17L6.25 17A0.25 0.25 0 0 0 6 17.25L6 17.75A0.25 0.25 0 0 1 5.75 18L5.25 18A0.25 0.25 0 0 1 5 17.75L5 16.25A0.25 0.25 0 0 1 5.25 16L6.75 16A0.25 0.25 0 0 0 7 15.75L7 15.25A0.25 0.25 0 0 0 6.75 15L5.25 15A0.25 0.25 0 0 0 5 15.25ZM17 15.25L17 16.75A0.25 0.25 0 0 0 17.25 17L17.75 17A0.25 0.25 0 0 1 18 17.25L18 17.75A0.25 0.25 0 0 1 17.75 18L17.25 18A0.25 0.25 0 0 0 17 18.25L17 18.75A0.25 0.25 0 0 1 16.75 19L16.25 19A0.25 0.25 0 0 0 16 19.25L16 20.75A0.25 0.25 0 0 0 16.25 21L16.75 21A0.25 0.25 0 0 0 17 20.75L17 20.25A0.25 0.25 0 0 1 17.25 20L17.75 20A0.25 0.25 0 0 1 18 20.25L18 20.75A0.25 0.25 0 0 0 18.25 21L18.75 21A0.25 0.25 0 0 0 19 20.75L19 20.25A0.25 0.25 0 0 0 18.75 20L18.25 20A0.25 0.25 0 0 1 18 19.75L18 19.25A0.25 0.25 0 0 1 18.25 19L18.75 19A0.25 0.25 0 0 0 19 18.75L19 16.25A0.25 0.25 0 0 0 18.75 16L18.25 16A0.25 0.25 0 0 1 18 15.75L18 15.25A0.25 0.25 0 0 0 17.75 15L17.25 15A0.25 0.25 0 0 0 17 15.25ZM0 17.25L0 20.75A0.25 0.25 0 0 0 0.25 21L0.75 21A0.25 0.25 0 0 0 1 20.75L1 17.25A0.25 0.25 0 0 0 0.75 17L0.25 17A0.25 0.25 0 0 0 0 17.25ZM8 18.25L8 18.75A0.25 0.25 0 0 0 8.25 19L8.75 19A0.25 0.25 0 0 0 9 18.75L9 18.25A0.25 0.25 0 0 0 8.75 18L8.25 18A0.25 0.25 0 0 0 8 18.25ZM14 19.25L14 19.75A0.25 0.25 0 0 0 14.25 20L14.75 20A0.25 0.25 0 0 0 15 19.75L15 19.25A0.25 0.25 0 0 0 14.75 19L14.25 19A0.25 0.25 0 0 0 14 19.25ZM21 21.25L21 23.75A0.25 0.25 0 0 0 21.25 24L23.75 24A0.25 0.25 0 0 0 24 23.75L24 21.25A0.25 0.25 0 0 0 23.75 21L21.25 21A0.25 0.25 0 0 0 21 21.25ZM25 21.25L25 21.75A0.25 0.25 0 0 0 25.25 22L26.75 22A0.25 0.25 0 0 0 27 21.75L27 21.25A0.25 0.25 0 0 0 26.75 21L25.25 21A0.25 0.25 0 0 0 25 21.25ZM22 22.25L22 22.75A0.25 0.25 0 0 0 22.25 23L22.75 23A0.25 0.25 0 0 0 23 22.75L23 22.25A0.25 0.25 0 0 0 22.75 22L22.25 22A0.25 0.25 0 0 0 22 22.25ZM16 23.25L16 24.75A0.25 0.25 0 0 0 16.25 25L16.75 25A0.25 0.25 0 0 0 17 24.75L17 24.25A0.25 0.25 0 0 1 17.25 24L17.75 24A0.25 0.25 0 0 1 18 24.25L18 24.75A0.25 0.25 0 0 0 18.25 25L18.75 25A0.25 0.25 0 0 0 19 24.75L19 23.25A0.25 0.25 0 0 0 18.75 23L16.25 23A0.25 0.25 0 0 0 16 23.25ZM9 24.25L9 24.75A0.25 0.25 0 0 0 9.25 25L9.75 25A0.25 0.25 0 0 1 10 25.25L10 25.75A0.25 0.25 0 0 1 9.75 26L9.25 26A0.25 0.25 0 0 0 9 26.25L9 26.75A0.25 0.25 0 0 0 9.25 27L11.75 27A0.25 0.25 0 0 0 12 26.75L12 26.25A0.25 0.25 0 0 0 11.75 26L11.25 26A0.25 0.25 0 0 1 11 25.75L11 24.25A0.25 0.25 0 0 0 10.75 24L9.25 24A0.25 0.25 0 0 0 9 24.25ZM26 26.25L26 26.75A0.25 0.25 0 0 1 25.75 27L25.25 27A0.25 0.25 0 0 0 25 27.25L25 27.75A0.25 0.25 0 0 1 24.75 28L24.25 28A0.25 0.25 0 0 0 24 28.25L24 28.75A0.25 0.25 0 0 0 24.25 29L26.75 29A0.25 0.25 0 0 0 27 28.75L27 27.25A0.25 0.25 0 0 1 27.25 27L27.75 27A0.25 0.25 0 0 1 28 27.25L28 27.75A0.25 0.25 0 0 0 28.25 28L28.75 28A0.25 0.25 0 0 0 29 27.75L29 27.25A0.25 0.25 0 0 0 28.75 27L28.25 27A0.25 0.25 0 0 1 28 26.75L28 26.25A0.25 0.25 0 0 0 27.75 26L26.25 26A0.25 0.25 0 0 0 26 26.25ZM16 27.25L16 27.75A0.25 0.25 0 0 0 16.25 28L16.75 28A0.25 0.25 0 0 0 17 27.75L17 27.25A0.25 0.25 0 0 0 16.75 27L16.25 27A0.25 0.25 0 0 0 16 27.25ZM21 28.25L21 28.75A0.25 0.25 0 0 0 21.25 29L22.75 29A0.25 0.25 0 0 0 23 28.75L23 28.25A0.25 0.25 0 0 0 22.75 28L21.25 28A0.25 0.25 0 0 0 21 28.25Z" fill="#362b48"/></g></g></svg>
