<?xml version="1.0" encoding="UTF-8" standalone="no"?>
<!-- Created with Inkscape (http://www.inkscape.org/) -->

<svg
   version="1.1"
   id="svg2"
   width="2063.8533"
   height="226.66667"
   viewBox="0 0 2063.8533 226.66667"
   xmlns="http://www.w3.org/2000/svg"
   xmlns:svg="http://www.w3.org/2000/svg">
  <defs
     id="defs6" />
  <g
     id="g8"
     transform="matrix(1.3333333,0,0,1.3333333,0,3.6666668e-6)">
    <g
       id="g10">
      <path
         d="m 641.918,0 v 170 h 110.496 v -29.75 h -78.195 v -42.5 h 71.398 V 68.852 H 674.219 V 29.75 h 78.195 V 0 H 641.918"
         style="fill:#0000cd;fill-opacity:1;fill-rule:nonzero;stroke:none"
         id="path12" />
      <path
         d="m 509.344,112.199 h -25.5 V 170 H 451.547 V 0 h 57.797 c 36.254,0 64.601,16.418 64.601,56.102 0,39.097 -28.562,56.097 -64.601,56.097 m -1.699,-84.746 h -23.801 v 57.293 h 23.801 c 18.617,0 32.3,-9.012 32.3,-28.644 0,-20.403 -13.683,-28.649 -32.3,-28.649"
         style="fill:#0000cd;fill-opacity:1;fill-rule:nonzero;stroke:none"
         id="path14" />
      <path
         d="m 1032.93,0 v 29.75 h 39.949 v 110.5 H 1032.93 V 170 h 112.199 V 140.25 H 1105.18 V 29.75 h 39.949 V 0 H 1032.93"
         style="fill:#0000cd;fill-opacity:1;fill-rule:nonzero;stroke:none"
         id="path16" />
      <path
         d="M 958.566,52.699 C 958.566,13.016 931.367,0 895.664,0 h -62.898 v 170 h 32.3 v -62.898 h 27.2 c 1.488,0 2.972,-0.028 4.437,-0.082 l 32.91,62.98 h 35.785 l -36.511,-69.719 c 17.769,-7.894 29.679,-23.054 29.679,-47.582 m -34,0 c 0,20.485 -11.902,26.946 -32.3,26.946 h -27.2 V 27.453 h 27.2 c 22.132,0 32.3,8.246 32.3,25.246"
         style="fill:#0000cd;fill-opacity:1;fill-rule:nonzero;stroke:none"
         id="path18" />
      <path
         d="m 1265.59,0 -56.102,170 h 34 l 11.59,-37.398 h 63.524 L 1330.191,170 h 34 L 1308.09,0 Z m 21.25,30.16 23.238,74.985 h -46.488 z"
         style="fill:#0000cd;fill-opacity:1;fill-rule:nonzero;stroke:none"
         id="path20" />
      <path
         d="m 1437.109,0 v 170 h 110.782 V 140.25 H 1469.41 V 0 h -32.301"
         style="fill:#0000cd;fill-opacity:1;fill-rule:nonzero;stroke:none"
         id="path22" />
      <path
         d="M 323.473,0 282.672,99.961 241.871,0 H 195.973 V 170 H 226.57 V 42.898 l 39.102,89.704 h 34 L 338.77,42.898 V 170 h 30.601 V 0 h -45.898"
         style="fill:#0000cd;fill-opacity:1;fill-rule:nonzero;stroke:none"
         id="path24" />
      <path
         d="m 0,0 v 29.75 h 39.949 v 110.5 H 0 V 170 H 112.199 V 140.25 H 72.25 V 29.75 h 39.949 V 0 H 0"
         style="fill:#0000cd;fill-opacity:1;fill-rule:nonzero;stroke:none"
         id="path26" />
    </g>
  </g>
</svg>
