<svg width="3250" height="2278" xmlns="http://www.w3.org/2000/svg" xmlns:xlink="http://www.w3.org/1999/xlink" xml:space="preserve" overflow="hidden"><defs><clipPath id="clip0"><rect x="366" y="-34" width="3250" height="2278"/></clipPath></defs><g clip-path="url(#clip0)" transform="translate(-366 34)"><path d="M366 60.1953C366 9.82955 406.83-30.9999 457.195-30.9999L1272.8-30.9999C1323.17-30.9999 1364 9.82955 1364 60.1953L1364 179.805C1364 230.17 1323.17 271 1272.8 271L457.195 271C406.83 271 366 230.17 366 179.805Z" fill="#4E77A4" fill-rule="evenodd"/><text fill="#FFFFFF" font-family="Times New Roman,Times New Roman_MSFontService,sans-serif" font-weight="400" font-size="92" transform="matrix(1 0 0 1 506.859 99)">Micro Sample Data</text><text fill="#FFFFFF" font-family="Times New Roman,Times New Roman_MSFontService,sans-serif" font-weight="400" font-size="92" transform="matrix(1 0 0 1 556.703 209)">Census Statistics</text><rect x="402" y="397" width="926" height="364" fill="#4E7F74"/><text fill="#FFFFFF" font-family="Times New Roman,Times New Roman_MSFontService,sans-serif" font-weight="400" font-size="92" transform="matrix(1 0 0 1 482.682 558)">Synthetic Poputation </text><text fill="#FFFFFF" font-family="Times New Roman,Times New Roman_MSFontService,sans-serif" font-weight="400" font-size="92" transform="matrix(1 0 0 1 661.707 668)">Generation</text><rect x="1783" y="397" width="926" height="364" fill="#4E7F74"/><text fill="#FFFFFF" font-family="Times New Roman,Times New Roman_MSFontService,sans-serif" font-weight="400" font-size="92" transform="matrix(1 0 0 1 2012.07 558)">E</text><text fill="#FFFFFF" font-family="Times New Roman,Times New Roman_MSFontService,sans-serif" font-weight="400" font-size="92" transform="matrix(1 0 0 1 2068.22 558)">-</text><text fill="#FFFFFF" font-family="Times New Roman,Times New Roman_MSFontService,sans-serif" font-weight="400" font-size="92" transform="matrix(1 0 0 1 2098.58 558)">commerce </text><text fill="#FFFFFF" font-family="Times New Roman,Times New Roman_MSFontService,sans-serif" font-weight="400" font-size="92" transform="matrix(1 0 0 1 1853.1 668)">Behaviour Modelling</text><rect x="952" y="1383" width="1165" height="395" fill="#4E7F74"/><text fill="#FFFFFF" font-family="Times New Roman,Times New Roman_MSFontService,sans-serif" font-weight="400" font-size="92" transform="matrix(1 0 0 1 1016.12 1560)">Synthetic Order Generation: </text><text fill="#FFFFFF" font-family="Times New Roman,Times New Roman_MSFontService,sans-serif" font-weight="400" font-size="92" transform="matrix(1 0 0 1 1115.24 1670)">Monte Carlo Sampling</text><path d="M366 1008.2C366 957.83 406.83 917 457.195 917L1272.8 917C1323.17 917 1364 957.83 1364 1008.2L1364 1127.8C1364 1178.17 1323.17 1219 1272.8 1219L457.195 1219C406.83 1219 366 1178.17 366 1127.8Z" fill="#766193" fill-rule="evenodd"/><text fill="#FFFFFF" font-family="Times New Roman,Times New Roman_MSFontService,sans-serif" font-weight="400" font-size="92" transform="matrix(1 0 0 1 482.797 1102)">Synthetic Population</text><path d="M872.031 271.5 872.031 334.769 871.994 341.089 859.39 341.015 859.427 334.713 859.427 334.75 859.427 271.5ZM884.62 334.814 865.5 397.771 846.807 334.686Z"/><path d="M0.00672522-6.30208 107.381-6.1875 107.367 6.41666-0.00672522 6.30208ZM101.417-18.9031 164.083 1.14583 100.729 18.9031Z" transform="matrix(6.12323e-17 1 1 -6.12323e-17 1534.5 1778.5)"/><path d="M1364.5 1062.2 1541.3 1062.2 1541.3 1326.89 1528.7 1326.89 1528.7 1068.5 1535 1074.8 1364.5 1074.8ZM1553.91 1320.58 1535 1383.6 1516.09 1320.58Z"/><path d="M0-6.30208 84.3339-6.30208 84.3339 0.229167 78.0318-6.07292 99.5729-6.07292 99.5729 6.53125 71.7297 6.53125 71.7297 0 78.0318 6.30208 0 6.30208ZM93.2708-18.6771 156.292 0.229167 93.2708 19.1354Z" transform="matrix(6.12323e-17 1 1 -6.12323e-17 865.5 761.5)"/><path d="M2923 225.527C2923 189.337 2952.34 160 2988.53 160L3547.47 160C3583.66 160 3613 189.337 3613 225.527L3613 311.473C3613 347.662 3583.66 377 3547.47 377L2988.53 377C2952.34 377 2923 347.662 2923 311.473Z" fill="#4E77A4" fill-rule="evenodd"/><text fill="#FFFFFF" font-family="Times New Roman,Times New Roman_MSFontService,sans-serif" font-weight="400" font-size="73" transform="matrix(1 0 0 1 2983.39 252)">Input: </text><text fill="#FFFFFF" font-family="Times New Roman,Times New Roman_MSFontService,sans-serif" font-weight="400" font-size="73" transform="matrix(1 0 0 1 3177.61 252)">Open</text><text fill="#FFFFFF" font-family="Times New Roman,Times New Roman_MSFontService,sans-serif" font-weight="400" font-size="73" transform="matrix(1 0 0 1 3336.31 252)">-</text><text fill="#FFFFFF" font-family="Times New Roman,Times New Roman_MSFontService,sans-serif" font-weight="400" font-size="73" transform="matrix(1 0 0 1 3360.95 252)">s</text><text fill="#FFFFFF" font-family="Times New Roman,Times New Roman_MSFontService,sans-serif" font-weight="400" font-size="73" transform="matrix(1 0 0 1 3389.59 252)">ource </text><text fill="#FFFFFF" font-family="Times New Roman,Times New Roman_MSFontService,sans-serif" font-weight="400" font-size="73" transform="matrix(1 0 0 1 3198.81 340)">Data</text><path d="M2253.03 268.5 2253.03 339.427 2246.5 339.427 2252.8 333.125 2252.8 340.802 2240.2 340.802 2240.2 326.823 2246.73 326.823 2240.43 333.125 2240.43 268.5ZM2265.41 334.5 2246.5 397.521 2227.59 334.5Z"/><path d="M1747 57.1953C1747 6.8295 1787.83-34 1838.2-34L2653.8-34C2704.17-34 2745 6.8295 2745 57.1953L2745 176.805C2745 227.171 2704.17 268 2653.8 268L1838.2 268C1787.83 268 1747 227.171 1747 176.805Z" fill="#4E77A4" fill-rule="evenodd"/><text fill="#FFFFFF" font-family="Times New Roman,Times New Roman_MSFontService,sans-serif" font-weight="400" font-size="92" transform="matrix(1 0 0 1 2022.5 96)">Muti</text><text fill="#FFFFFF" font-family="Times New Roman,Times New Roman_MSFontService,sans-serif" font-weight="400" font-size="92" transform="matrix(1 0 0 1 2200.1 96)">-</text><text fill="#FFFFFF" font-family="Times New Roman,Times New Roman_MSFontService,sans-serif" font-weight="400" font-size="92" transform="matrix(1 0 0 1 2230.47 96)">source </text><text fill="#FFFFFF" font-family="Times New Roman,Times New Roman_MSFontService,sans-serif" font-weight="400" font-size="92" transform="matrix(1 0 0 1 1858.37 206)">E</text><text fill="#FFFFFF" font-family="Times New Roman,Times New Roman_MSFontService,sans-serif" font-weight="400" font-size="92" transform="matrix(1 0 0 1 1914.52 206)">-</text><text fill="#FFFFFF" font-family="Times New Roman,Times New Roman_MSFontService,sans-serif" font-weight="400" font-size="92" transform="matrix(1 0 0 1 1944.88 206)">commerce Reports</text><path d="M1747 1008.2C1747 957.83 1787.83 917 1838.2 917L2653.8 917C2704.17 917 2745 957.83 2745 1008.2L2745 1127.8C2745 1178.17 2704.17 1219 2653.8 1219L1838.2 1219C1787.83 1219 1747 1178.17 1747 1127.8Z" fill="#766193" fill-rule="evenodd"/><text fill="#FFFFFF" font-family="Times New Roman,Times New Roman_MSFontService,sans-serif" font-weight="400" font-size="92" transform="matrix(1 0 0 1 1949.75 1047)">Fuzzy Inference </text><text fill="#FFFFFF" font-family="Times New Roman,Times New Roman_MSFontService,sans-serif" font-weight="400" font-size="92" transform="matrix(1 0 0 1 2041.14 1157)">Rule Bases</text><path d="M0-6.30208 84.6767-6.30208 84.6767 0.229167 78.3746-6.07292 99.8021-6.07292 99.8021 6.53125 72.0726 6.53125 72.0726 0 78.3746 6.30208 0 6.30208ZM93.5-18.6771 156.521 0.229167 93.5 19.1354Z" transform="matrix(6.12323e-17 1 1 -6.12323e-17 2246.5 761.5)"/><path d="M1036 2033.2C1036 1982.83 1076.83 1942 1127.2 1942L1942.8 1942C1993.17 1942 2034 1982.83 2034 2033.2L2034 2152.8C2034 2203.17 1993.17 2244 1942.8 2244L1127.2 2244C1076.83 2244 1036 2203.17 1036 2152.8Z" fill="#766193" fill-rule="evenodd"/><text fill="#FFFFFF" font-family="Times New Roman,Times New Roman_MSFontService,sans-serif" font-weight="400" font-size="92" transform="matrix(1 0 0 1 1243.57 2127)">Synthetic Order</text><path d="M0-6.30208 218.51-6.30208 218.51 258.385 205.906 258.385 205.906 0 212.208 6.30208 0 6.30208ZM231.115 252.083 212.208 315.104 193.302 252.083Z" transform="matrix(-1 1.22465e-16 1.22465e-16 1 1747.71 1068.5)"/><path d="M2923 858.226C2923 822.203 2952.2 793 2988.23 793L3547.77 793C3583.8 793 3613 822.203 3613 858.226L3613 943.774C3613 979.797 3583.8 1009 3547.77 1009L2988.23 1009C2952.2 1009 2923 979.797 2923 943.774Z" fill="#766193" fill-rule="evenodd"/><text fill="#FFFFFF" font-family="Times New Roman,Times New Roman_MSFontService,sans-serif" font-weight="400" font-size="73" transform="matrix(1 0 0 1 3042.69 928)">Module Output</text><rect x="2923" y="476" width="690" height="216" fill="#4E7F74"/><text fill="#FFFFFF" font-family="Times New Roman,Times New Roman_MSFontService,sans-serif" font-weight="400" font-size="73" transform="matrix(1 0 0 1 2975.37 611)">Framework Module</text><text font-family="Times New Roman,Times New Roman_MSFontService,sans-serif" font-weight="700" font-size="83" transform="matrix(1 0 0 1 3046.07 97)">Components</text></g></svg>