<svg width="4652" height="2973" xmlns="http://www.w3.org/2000/svg" xmlns:xlink="http://www.w3.org/1999/xlink" xml:space="preserve" overflow="hidden"><g transform="translate(30 257)"><text font-family="Times New Roman,Times New Roman_MSFontService,sans-serif" font-weight="400" font-size="83" transform="matrix(1 0 0 1 1364.69 1941)">No</text><rect x="2678" y="429" width="537" height="280" fill="#4E7F74"/><text fill="#FFFFFF" font-family="Times New Roman,Times New Roman_MSFontService,sans-serif" font-weight="400" font-size="92" transform="matrix(1 0 0 1 2753.38 603)">Frequency</text><rect x="2678" y="885" width="537" height="279" fill="#4E7F74"/><text fill="#FFFFFF" font-family="Times New Roman,Times New Roman_MSFontService,sans-serif" font-weight="400" font-size="92" transform="matrix(1 0 0 1 2778.87 1059)">Category</text><text font-family="Times New Roman,Times New Roman_MSFontService,sans-serif" font-weight="700" font-size="92" transform="matrix(1 0 0 1 1815.69 530)">Fuzzification &amp; </text><text font-family="Times New Roman,Times New Roman_MSFontService,sans-serif" font-weight="700" font-size="92" transform="matrix(1 0 0 1 1878.39 645)">Aggregation</text><text font-family="Times New Roman,Times New Roman_MSFontService,sans-serif" font-weight="700" font-size="110" transform="matrix(1 0 0 1 1147.9 -117)">Behaviour Modelling: Fuzzy Inference System</text><text font-family="Times New Roman,Times New Roman_MSFontService,sans-serif" font-weight="700" font-size="110" transform="matrix(1 0 0 1 1147.9 1410)">Demand Generation: Monte Carlo (MC) Sampling</text><rect x="1178" y="174" width="591" height="793" fill="#4E7F74"/><text fill="#FFFFFF" font-family="Times New Roman,Times New Roman_MSFontService,sans-serif" font-weight="400" font-size="92" transform="matrix(1 0 0 1 1224.55 302)">Demographic </text><text fill="#FFFFFF" font-family="Times New Roman,Times New Roman_MSFontService,sans-serif" font-weight="400" font-size="92" transform="matrix(1 0 0 1 1318.79 412)">Features</text><text fill="#FFFFFF" font-family="Arial,Arial_MSFontService,sans-serif" font-weight="400" font-size="83" transform="matrix(1 0 0 1 1267.52 513)">•</text><text fill="#FFFFFF" font-family="Times New Roman,Times New Roman_MSFontService,sans-serif" font-weight="400" font-size="83" transform="matrix(1 0 0 1 1335.12 513)">Age</text><text fill="#FFFFFF" font-family="Arial,Arial_MSFontService,sans-serif" font-weight="400" font-size="83" transform="matrix(1 0 0 1 1267.52 612)">•</text><text fill="#FFFFFF" font-family="Times New Roman,Times New Roman_MSFontService,sans-serif" font-weight="400" font-size="83" transform="matrix(1 0 0 1 1335.12 612)">Sex</text><text fill="#FFFFFF" font-family="Arial,Arial_MSFontService,sans-serif" font-weight="400" font-size="83" transform="matrix(1 0 0 1 1267.52 711)">•</text><text fill="#FFFFFF" font-family="Times New Roman,Times New Roman_MSFontService,sans-serif" font-weight="400" font-size="83" transform="matrix(1 0 0 1 1335.12 711)">Marital </text><text fill="#FFFFFF" font-family="Times New Roman,Times New Roman_MSFontService,sans-serif" font-weight="400" font-size="83" transform="matrix(1 0 0 1 1335.12 810)">Status</text><text fill="#FFFFFF" font-family="Arial,Arial_MSFontService,sans-serif" font-weight="400" font-size="83" transform="matrix(1 0 0 1 1267.52 909)">•</text><text fill="#FFFFFF" font-family="Times New Roman,Times New Roman_MSFontService,sans-serif" font-weight="400" font-size="83" transform="matrix(1 0 0 1 1335.12 909)">...</text><path d="M28.9999 1616.19C28.9999 1565.83 69.8292 1525 120.195 1525L821.805 1525C872.171 1525 913 1565.83 913 1616.19L913 1735.8C913 1786.17 872.171 1827 821.805 1827L120.195 1827C69.8292 1827 28.9999 1786.17 28.9999 1735.8Z" fill="#4E77A4" fill-rule="evenodd"/><text fill="#FFFFFF" font-family="Times New Roman,Times New Roman_MSFontService,sans-serif" font-weight="400" font-size="92" transform="matrix(1 0 0 1 88.5155 1655)">Synthetic Population </text><text fill="#FFFFFF" font-family="Times New Roman,Times New Roman_MSFontService,sans-serif" font-weight="400" font-size="92" transform="matrix(1 0 0 1 318.53 1765)">Instance </text><path d="M32 498.195C32 447.829 72.8292 407 123.195 407L821.805 407C872.171 407 913 447.829 913 498.195L913 617.805C913 668.171 872.171 709 821.805 709L123.195 709C72.8292 709 32 668.171 32 617.805Z" fill="#4E77A4" fill-rule="evenodd"/><text fill="#FFFFFF" font-family="Times New Roman,Times New Roman_MSFontService,sans-serif" font-weight="400" font-size="92" transform="matrix(1 0 0 1 173.937 537)">Multi</text><text fill="#FFFFFF" font-family="Times New Roman,Times New Roman_MSFontService,sans-serif" font-weight="400" font-size="92" transform="matrix(1 0 0 1 376.75 537)">-</text><text fill="#FFFFFF" font-family="Times New Roman,Times New Roman_MSFontService,sans-serif" font-weight="400" font-size="92" transform="matrix(1 0 0 1 407.114 537)">Source E</text><text fill="#FFFFFF" font-family="Times New Roman,Times New Roman_MSFontService,sans-serif" font-weight="400" font-size="92" transform="matrix(1 0 0 1 740.552 537)">-</text><text fill="#FFFFFF" font-family="Times New Roman,Times New Roman_MSFontService,sans-serif" font-weight="400" font-size="92" transform="matrix(1 0 0 1 128.104 647)">commerce Reports </text><rect x="1232" y="1991" width="537" height="279" fill="#4E7F74"/><text fill="#FFFFFF" font-family="Times New Roman,Times New Roman_MSFontService,sans-serif" font-weight="400" font-size="92" transform="matrix(1 0 0 1 1292.16 2110)">Non</text><text fill="#FFFFFF" font-family="Times New Roman,Times New Roman_MSFontService,sans-serif" font-weight="400" font-size="92" transform="matrix(1 0 0 1 1450.28 2110)">-</text><text fill="#FFFFFF" font-family="Times New Roman,Times New Roman_MSFontService,sans-serif" font-weight="400" font-size="92" transform="matrix(1 0 0 1 1480.65 2110)">online </text><text fill="#FFFFFF" font-family="Times New Roman,Times New Roman_MSFontService,sans-serif" font-weight="400" font-size="92" transform="matrix(1 0 0 1 1322.8 2220)">Customer</text><rect x="2196" y="1536" width="538" height="279" fill="#4E7F74"/><text fill="#FFFFFF" font-family="Times New Roman,Times New Roman_MSFontService,sans-serif" font-weight="400" font-size="92" transform="matrix(1 0 0 1 2271.44 1710)">Frequency</text><rect x="2931" y="1536" width="537" height="279" fill="#4E7F74"/><text fill="#FFFFFF" font-family="Times New Roman,Times New Roman_MSFontService,sans-serif" font-weight="400" font-size="92" transform="matrix(1 0 0 1 3031.42 1710)">Category</text><path d="M1922.5 1669.2 2066.07 1669.2 2066.07 1675.73 2059.77 1669.43 2140.09 1669.43 2140.09 1682.03 2053.47 1682.03 2053.47 1675.5 2059.77 1681.8 1922.5 1681.8ZM2133.79 1656.82 2196.81 1675.73 2133.79 1694.64Z" fill="#375E69"/><path d="M2734.51 1670.2 2874.88 1670.31 2874.87 1682.92 2734.49 1682.8ZM2868.92 1657.6 2931.58 1677.65 2868.23 1695.4Z" fill="#375E69"/><text font-family="Arial,Arial_MSFontService,sans-serif" font-weight="400" font-size="83" transform="matrix(1 0 0 1 3791.1 1916)">•</text><text font-family="Times New Roman,Times New Roman_MSFontService,sans-serif" font-weight="400" font-size="83" transform="matrix(1 0 0 1 3894.23 1916)">Category</text><text font-family="Arial,Arial_MSFontService,sans-serif" font-weight="400" font-size="83" transform="matrix(1 0 0 1 3791.1 2020)">•</text><text font-family="Times New Roman,Times New Roman_MSFontService,sans-serif" font-weight="400" font-size="83" transform="matrix(1 0 0 1 3894.23 2020)">Value</text><text font-family="Arial,Arial_MSFontService,sans-serif" font-weight="400" font-size="83" transform="matrix(1 0 0 1 3791.1 2124)">•</text><text font-family="Times New Roman,Times New Roman_MSFontService,sans-serif" font-weight="400" font-size="83" transform="matrix(1 0 0 1 3894.23 2124)">Weight</text><text font-family="Arial,Arial_MSFontService,sans-serif" font-weight="400" font-size="83" transform="matrix(1 0 0 1 3791.1 2228)">•</text><text font-family="Times New Roman,Times New Roman_MSFontService,sans-serif" font-weight="400" font-size="83" transform="matrix(1 0 0 1 3894.23 2228)">Size</text><path d="M1080 1675 1501 1513 1922 1675 1501 1837Z" fill="#4E7F74" fill-rule="evenodd"/><text fill="#FFFFFF" font-family="Times New Roman,Times New Roman_MSFontService,sans-serif" font-weight="400" font-size="92" transform="matrix(1 0 0 1 1305.99 1709)">Available?</text><path d="M0.00747505-6.30208 96.6106-6.1875 96.5957 6.41666-0.00747505 6.30208ZM90.6458-18.9031 153.312 1.14583 89.9583 18.9031Z" fill="#375E69" transform="matrix(6.12323e-17 1 1 -6.12323e-17 1500.5 1838.5)"/><text font-family="Times New Roman,Times New Roman_MSFontService,sans-serif" font-weight="400" font-size="83" transform="matrix(1 0 0 1 2005.21 1641)">Yes</text><rect x="2678" y="-25.0001" width="537" height="279" fill="#4E7F74"/><text fill="#FFFFFF" font-family="Times New Roman,Times New Roman_MSFontService,sans-serif" font-weight="400" font-size="92" transform="matrix(1 0 0 1 2731.86 149)">Availability</text><path d="M0-6.30208 669.273-6.30208 669.273 455.812 662.971 449.51 803.802 449.51 803.802 462.115 656.669 462.115 656.669 0 662.971 6.30208 0 6.30208ZM797.5 436.906 860.521 455.812 797.5 474.719Z" fill="#375E69" transform="matrix(1 0 0 -1 1818.5 571.312)"/><path d="M0-6.30208 460.743-6.30208 460.743 1.14583 454.441-5.15625 851.927-5.15625 851.927 7.44792 448.139 7.44792 448.139 0 454.441 6.30208 0 6.30208ZM845.625-17.7604 908.646 1.14583 845.625 20.0521Z" fill="#375E69" transform="matrix(1 0 0 -1 1769.5 570.646)"/><path d="M1769.5 564.198 2487.13 564.198 2487.13 1024.71 2480.82 1018.41 2621.43 1018.41 2621.43 1031.01 2474.52 1031.01 2474.52 570.5 2480.82 576.802 1769.5 576.802ZM2615.12 1005.8 2678.15 1024.71 2615.12 1043.61Z" fill="#375E69"/><path d="M3656 43.1951C3656-7.17062 3696.83-48.0001 3747.2-48.0001L4409.81-48.0001C4460.17-48.0001 4501-7.17062 4501 43.1951L4501 162.805C4501 213.171 4460.17 254 4409.81 254L3747.2 254C3696.83 254 3656 213.171 3656 162.805Z" fill="#766193" fill-rule="evenodd"/><text fill="#FFFFFF" font-family="Times New Roman,Times New Roman_MSFontService,sans-serif" font-weight="400" font-size="92" transform="matrix(1 0 0 1 3749.17 82)">FIS Rule Base for </text><text fill="#FFFFFF" font-family="Times New Roman,Times New Roman_MSFontService,sans-serif" font-weight="400" font-size="92" transform="matrix(1 0 0 1 3863.73 192)">Availability</text><path d="M3656 498.195C3656 447.829 3696.83 407 3747.2 407L4409.81 407C4460.17 407 4501 447.829 4501 498.195L4501 617.805C4501 668.171 4460.17 709 4409.81 709L3747.2 709C3696.83 709 3656 668.171 3656 617.805Z" fill="#766193" fill-rule="evenodd"/><text fill="#FFFFFF" font-family="Times New Roman,Times New Roman_MSFontService,sans-serif" font-weight="400" font-size="92" transform="matrix(1 0 0 1 3749.17 537)">FIS Rule Base for </text><text fill="#FFFFFF" font-family="Times New Roman,Times New Roman_MSFontService,sans-serif" font-weight="400" font-size="92" transform="matrix(1 0 0 1 3885.25 647)">Frequency</text><path d="M3656 953.195C3656 902.83 3696.83 862 3747.2 862L4409.81 862C4460.17 862 4501 902.83 4501 953.195L4501 1072.8C4501 1123.17 4460.17 1164 4409.81 1164L3747.2 1164C3696.83 1164 3656 1123.17 3656 1072.8Z" fill="#766193" fill-rule="evenodd"/><text fill="#FFFFFF" font-family="Times New Roman,Times New Roman_MSFontService,sans-serif" font-weight="400" font-size="92" transform="matrix(1 0 0 1 3749.17 992)">FIS Rule Base for </text><text fill="#FFFFFF" font-family="Times New Roman,Times New Roman_MSFontService,sans-serif" font-weight="400" font-size="92" transform="matrix(1 0 0 1 3792.43 1102)">Order Category</text><path d="M943 505.25 1067.5 505.25 1067.5 465 1148 545.5 1067.5 626 1067.5 585.75 943 585.75Z" fill="#4E7F74" fill-rule="evenodd"/><path d="M3341 510.5 3464 510.5 3464 470 3545 551 3464 632 3464 591.5 3341 591.5Z" fill="#4E7F74" fill-rule="evenodd"/><path d="M0-6.30208 89.7191-6.30208 89.7191 0.6875 83.417-5.61458 109.885-5.61458 109.885 6.98958 77.1149 6.98958 77.1149 0 83.417 6.30208 0 6.30208ZM103.583-18.2188 166.604 0.6875 103.583 19.5938Z" fill="#375E69" transform="matrix(1 0 0 -1 913.5 1676.19)"/><path d="M3656 1616.2C3656 1565.83 3696.83 1525 3747.2 1525L4409.81 1525C4460.17 1525 4501 1565.83 4501 1616.2L4501 1735.8C4501 1786.17 4460.17 1827 4409.81 1827L3747.2 1827C3696.83 1827 3656 1786.17 3656 1735.8Z" fill="#766193" fill-rule="evenodd"/><text fill="#FFFFFF" font-family="Times New Roman,Times New Roman_MSFontService,sans-serif" font-weight="400" font-size="92" transform="matrix(1 0 0 1 3787.55 1655)">Synthetic Order </text><text fill="#FFFFFF" font-family="Times New Roman,Times New Roman_MSFontService,sans-serif" font-weight="400" font-size="92" transform="matrix(1 0 0 1 3926.2 1765)">Instance</text><path d="M3468.5 1670.2 3568.99 1670.2 3568.99 1676.96 3562.69 1670.66 3600.16 1670.66 3600.16 1683.26 3556.39 1683.26 3556.39 1676.5 3562.69 1682.8 3468.5 1682.8ZM3593.85 1658.05 3656.88 1676.96 3593.85 1695.86Z" fill="#375E69"/><text font-family="Times New Roman,Times New Roman_MSFontService,sans-serif" font-weight="400" font-size="83" transform="matrix(1 0 0 1 1623.19 1880)">Bernoulli MC</text><text font-family="Times New Roman,Times New Roman_MSFontService,sans-serif" font-weight="400" font-size="83" transform="matrix(1 0 0 1 2232.08 1912)">Poisson MC</text><text font-family="Times New Roman,Times New Roman_MSFontService,sans-serif" font-weight="400" font-size="83" transform="matrix(1 0 0 1 2875.81 1915)">Discrete Random MC</text><path d="M-29.5001 1257.5 4616.17 1257.5" stroke="#0D0D0D" stroke-width="11.4583" stroke-miterlimit="8" fill="none" fill-rule="evenodd"/><path d="M50.9999 2565.23C50.9999 2529.2 80.2023 2500 116.225 2500L689.774 2500C725.797 2500 755 2529.2 755 2565.23L755 2650.77C755 2686.8 725.797 2716 689.774 2716L116.225 2716C80.2023 2716 50.9999 2686.8 50.9999 2650.77Z" fill="#4E77A4" fill-rule="evenodd"/><text fill="#FFFFFF" font-family="Times New Roman,Times New Roman_MSFontService,sans-serif" font-weight="400" font-size="73" transform="matrix(1 0 0 1 246.634 2635)">Input Data</text><path d="M1633 2564.23C1633 2528.2 1662.2 2499 1698.23 2499L2272.77 2499C2308.8 2499 2338 2528.2 2338 2564.23L2338 2649.77C2338 2685.8 2308.8 2715 2272.77 2715L1698.23 2715C1662.2 2715 1633 2685.8 1633 2649.77Z" fill="#766193" fill-rule="evenodd"/><text fill="#FFFFFF" font-family="Times New Roman,Times New Roman_MSFontService,sans-serif" font-weight="400" font-size="73" transform="matrix(1 0 0 1 1762.09 2634)">Process Output</text><rect x="848" y="2500" width="704" height="216" fill="#4E7F74"/><text fill="#FFFFFF" font-family="Times New Roman,Times New Roman_MSFontService,sans-serif" font-weight="400" font-size="73" transform="matrix(1 0 0 1 921.564 2635)">Functional Process </text><text font-family="Times New Roman,Times New Roman_MSFontService,sans-serif" font-weight="700" font-size="83" transform="matrix(1 0 0 1 83.6458 2453)">Components</text></g></svg>